<svg width="34" height="34" viewBox="0 0 34 34" fill="none" xmlns="http://www.w3.org/2000/svg">
<rect width="33.1824" height="33.4235" rx="16.5912" fill="#FF0000"/>
<path d="M11.8297 11.7249C13.4251 8.94133 14.2229 7.54956 15.2757 7.10377C16.1168 6.74764 17.0648 6.74764 17.9059 7.10377C18.9588 7.54956 19.7565 8.94133 21.352 11.7249L25.2184 18.4703C26.8139 21.2539 27.6116 22.6456 27.4685 23.787C27.3541 24.6987 26.8801 25.5257 26.1534 26.0813C25.2437 26.7768 23.6482 26.7768 20.4572 26.7768H12.7244C9.53345 26.7768 7.93798 26.7768 7.02827 26.0813C6.30153 25.5257 5.82752 24.6987 5.71317 23.787C5.57003 22.6456 6.36777 21.2539 7.96325 18.4703L11.8297 11.7249Z" fill="white"/>
<rect x="15.502" y="21.8438" width="2.17793" height="2.19375" rx="1.08896" fill="#FF0000"/>
<rect x="15.502" y="12.1912" width="2.17793" height="8.08555" rx="1.08896" fill="#FF0000"/>
</svg>
