<svg width="34" height="34" viewBox="0 0 34 34" fill="none" xmlns="http://www.w3.org/2000/svg">
<rect width="33.1824" height="33.4235" rx="16.5912" fill="#3182FB"/>
<path d="M11.8301 11.7249C13.4256 8.94133 14.2234 7.54956 15.2762 7.10377C16.1173 6.74764 17.0653 6.74764 17.9064 7.10377C18.9592 7.54956 19.757 8.94133 21.3525 11.7249L25.2189 18.4703C26.8143 21.2539 27.6121 22.6456 27.4689 23.787C27.3546 24.6987 26.8806 25.5257 26.1539 26.0813C25.2441 26.7768 23.6487 26.7768 20.4577 26.7768H12.7249C9.53394 26.7768 7.93846 26.7768 7.02876 26.0813C6.30202 25.5257 5.82801 24.6987 5.71366 23.787C5.57052 22.6456 6.36826 21.2539 7.96374 18.4703L11.8301 11.7249Z" fill="white"/>
<rect x="15.502" y="21.8438" width="2.17793" height="2.19375" rx="1.08896" fill="#3182FB"/>
<rect x="15.502" y="12.1912" width="2.17793" height="8.08555" rx="1.08896" fill="#3182FB"/>
</svg>
