<svg width="24" height="20" viewBox="0 0 24 20" fill="none" xmlns="http://www.w3.org/2000/svg">
<path d="M22.4167 1.12123C21.9947 0.765762 21.4938 0.483784 20.9425 0.291401C20.3912 0.0990185 19.8003 0 19.2036 0C18.6069 0 18.016 0.0990185 17.4647 0.291401C16.9134 0.483784 16.4125 0.765762 15.9906 1.12123L14.6849 2.22308C14.6196 2.26705 14.56 2.31665 14.5069 2.37106L1.5455 13.2915C1.37977 13.4308 1.26662 13.6082 1.22028 13.8015L0.0238391 18.8008C-0.0151936 18.9623 -0.00618501 19.1295 0.0500625 19.2875C0.10631 19.4454 0.208051 19.5892 0.346223 19.7059C0.484396 19.8227 0.654711 19.9089 0.842001 19.9568C1.02929 20.0048 1.22774 20.0129 1.41968 19.9806L7.36388 18.9807C7.59331 18.9417 7.80392 18.8464 7.96922 18.7068L22.4167 6.53647C22.8386 6.18105 23.1734 5.75909 23.4018 5.29469C23.6301 4.83028 23.7477 4.33253 23.7477 3.82985C23.7477 3.32718 23.6301 2.82942 23.4018 2.36502C23.1734 1.90061 22.8386 1.47865 22.4167 1.12323V1.12123ZM15.4351 4.42077L18.5045 7.00641L6.54489 17.079L2.70395 17.7269L3.47546 14.4954L15.4351 4.42077ZM20.1828 5.59261L17.1134 3.00497L17.6689 2.53703C17.8694 2.36394 18.1087 2.22608 18.3729 2.13146C18.6371 2.03684 18.921 1.98733 19.2081 1.9858C19.4952 1.98427 19.7798 2.03075 20.0454 2.12255C20.311 2.21435 20.5524 2.34965 20.7555 2.52059C20.9585 2.69154 21.1193 2.89474 21.2285 3.11842C21.3377 3.3421 21.3931 3.5818 21.3915 3.82365C21.3899 4.06549 21.3314 4.30467 21.2192 4.52731C21.1071 4.74995 20.9437 4.95163 20.7383 5.12067L20.1828 5.58861V5.59261Z" fill="#3182FB"/>
</svg>
