<svg width="464" height="403" viewBox="0 0 464 403" fill="none" xmlns="http://www.w3.org/2000/svg">
<path d="M176.454 333.994H178.827V325.767C178.827 322.573 178.764 320.255 178.62 317.826L178.708 317.802C179.656 319.889 180.962 322.087 182.308 324.229L188.416 333.994H190.933V314.744H188.592V322.828C188.592 325.798 188.647 328.14 188.878 330.713L188.823 330.768C187.875 328.769 186.76 326.738 185.366 324.484L179.194 314.744H176.454V333.994Z" fill="#87B2FF"/>
<path d="M202.856 332.282C198.937 332.282 196.683 328.769 196.683 324.397C196.683 320.088 198.881 316.456 202.88 316.456C207.109 316.456 209.02 320.454 209.02 324.397C209.02 328.594 206.91 332.282 202.856 332.282ZM202.712 334.305C207.563 334.305 211.648 330.736 211.648 324.341C211.648 318.774 208.534 314.433 203.055 314.433C197.743 314.433 194.055 318.575 194.055 324.484C194.055 330.227 197.48 334.305 202.712 334.305Z" fill="#87B2FF"/>
<path d="M224.842 332.027V316.831C225.503 316.719 226.474 316.576 227.757 316.576C233.013 316.576 235.586 319.459 235.554 323.999C235.554 329.199 232.671 332.162 227.359 332.162C226.387 332.162 225.471 332.138 224.842 332.027ZM222.333 333.938C223.615 334.082 225.105 334.169 226.873 334.169C230.616 334.169 233.587 333.197 235.387 331.398C237.187 329.598 238.158 327.057 238.158 323.911C238.158 320.797 237.155 318.575 235.442 316.998C233.754 315.429 231.213 314.601 227.645 314.601C225.678 314.601 223.878 314.776 222.333 314.999V333.938Z" fill="#87B2FF"/>
<path d="M244.932 325.998L246.819 320.43C247.186 319.26 247.504 318.089 247.759 316.942H247.847C248.134 318.057 248.412 319.196 248.842 320.454L250.73 325.998H244.932ZM239.851 333.994H242.447L244.414 327.941H251.24L253.302 333.994H255.955L249.384 314.744H246.389L239.851 333.994Z" fill="#87B2FF"/>
<path d="M262.37 333.994H264.879V316.862H270.764V314.744H256.508V316.862H262.37V333.994Z" fill="#87B2FF"/>
<path d="M277.526 325.998L279.414 320.43C279.78 319.26 280.099 318.089 280.353 316.942H280.441C280.728 318.057 281.007 319.196 281.437 320.454L283.324 325.998H277.526ZM272.445 333.994H275.041L277.008 327.941H283.834L285.897 333.994H288.549L281.978 314.744H278.984L272.445 333.994Z" fill="#87B2FF"/>
<mask id="mask0_198_10273" style="mask-type:luminance" maskUnits="userSpaceOnUse" x="112" y="0" width="241" height="301">
<path d="M112 0H353V300.02H112V0Z" fill="white"/>
</mask>
<g mask="url(#mask0_198_10273)">
<path d="M289.061 35.0435C305.348 35.0435 318.571 48.267 318.571 64.5537V203.498C318.571 219.784 307.001 228.324 292.75 222.556C278.499 216.788 268.306 223.951 270.002 238.541C271.699 253.131 259.853 264.977 243.566 264.977H175.938C159.652 264.977 146.428 251.754 146.428 235.467V64.5537C146.428 48.267 159.652 35.0435 175.938 35.0435H289.061Z" stroke="#87B2FF" stroke-width="5.28"/>
<path d="M289.061 35.0435C305.348 35.0435 318.571 48.267 318.571 64.5537V203.498C318.571 219.784 307.001 228.324 292.75 222.556C278.499 216.788 268.306 223.951 270.002 238.541C271.699 253.131 259.853 264.977 243.566 264.977H175.938C159.652 264.977 146.428 251.754 146.428 235.467V64.5537C146.428 48.267 159.652 35.0435 175.938 35.0435H289.061Z" fill="#87B1FF" fill-opacity="0.2"/>
<path d="M289.061 35.0435C305.348 35.0435 318.571 48.267 318.571 64.5537V203.498C318.571 219.784 307.001 228.324 292.75 222.556C278.499 216.788 268.306 223.951 270.002 238.541C271.699 253.131 259.853 264.977 243.566 264.977H175.938C159.652 264.977 146.428 251.754 146.428 235.467V64.5537C146.428 48.267 159.652 35.0435 175.938 35.0435H289.061Z" stroke="#87B2FF" stroke-width="5.28"/>
<path d="M144.519 238.208C131.83 234.905 122.452 223.361 122.452 209.645V38.7321C122.452 22.4454 135.675 9.22192 151.962 9.22192H265.084C279.732 9.22192 291.903 19.9181 294.203 33.9207" stroke="#87B2FF" stroke-width="5.28"/>
<path d="M318.571 205.034V214.487C318.571 219.704 314.222 227.322 308.866 231.488L275.712 257.274C270.355 261.441 260.496 264.823 253.71 264.823H235.266" stroke="#87B2FF" stroke-width="5.28"/>
<path d="M219.145 168.861C219.145 174.563 223.67 179.089 229.282 179.089C234.984 179.089 239.509 174.563 239.509 168.861C239.509 163.25 234.984 158.634 229.282 158.634C223.67 158.634 219.145 163.25 219.145 168.861ZM219.416 122.43C219.416 128.947 220.955 138.903 223.489 150.578C224.213 153.837 225.481 155.285 229.282 155.285C233.174 155.285 234.441 153.837 235.165 150.578C237.699 138.903 239.238 128.947 239.238 122.43C239.238 115.823 236.432 111.75 229.282 111.75C222.222 111.75 219.416 115.823 219.416 122.43Z" fill="#5C78AA"/>
</g>
<path d="M195.954 203.992C193.646 203.992 191.773 205.865 191.773 208.172C191.773 210.483 193.646 212.354 195.954 212.354C201.062 212.354 205.625 215.206 207.864 219.805C208.59 221.288 210.076 222.153 211.624 222.153C212.241 222.153 212.865 222.016 213.453 221.729C215.53 220.718 216.393 218.217 215.38 216.14C211.731 208.647 204.283 203.992 195.954 203.992Z" fill="#70D5FF" fill-opacity="0.5"/>
<path d="M240.93 261.414L226.998 247.48C231.123 241.679 233.572 234.607 233.572 226.961C233.572 207.365 217.629 191.422 198.033 191.422C178.436 191.422 162.495 207.365 162.495 226.961C162.495 246.556 178.436 262.499 198.033 262.499C206.219 262.499 213.745 259.691 219.76 255.023L233.539 268.802C234.559 269.822 235.899 270.334 237.234 270.334C238.573 270.334 239.91 269.824 240.93 268.802C242.972 266.764 242.972 263.455 240.93 261.414ZM170.859 226.963C170.859 211.977 183.051 199.786 198.036 199.786C213.02 199.786 225.212 211.977 225.212 226.963C225.212 233.197 223.082 238.932 219.535 243.523C218.364 245.039 217.047 246.438 215.585 247.677C210.846 251.698 204.724 254.139 198.036 254.139C183.05 254.138 170.859 241.947 170.859 226.963Z" fill="#70D5FF"/>
<path d="M198.126 198.278C214.102 198.278 227.072 211.249 227.072 227.224C227.072 243.199 214.102 256.17 198.126 256.17C182.151 256.17 169.18 243.199 169.18 227.224C169.18 211.249 182.151 198.278 198.126 198.278Z" fill="#70D5FF" fill-opacity="0.34"/>
<path d="M3.33613 361.88V368.968C3.33613 369.811 3.55479 370.445 3.99213 370.872C4.44013 371.299 5.05879 371.512 5.84813 371.512C6.64813 371.512 7.26679 371.299 7.70413 370.872C8.15213 370.445 8.37613 369.811 8.37613 368.968V361.88H10.2001V368.936C10.2001 369.843 10.0028 370.611 9.60813 371.24C9.21346 371.869 8.68546 372.339 8.02413 372.648C7.36279 372.957 6.63213 373.112 5.83213 373.112C5.03213 373.112 4.30146 372.957 3.64013 372.648C2.98946 372.339 2.47213 371.869 2.08813 371.24C1.70413 370.611 1.51213 369.843 1.51213 368.936V361.88H3.33613ZM17.023 364.04C17.7163 364.04 18.335 364.184 18.879 364.472C19.4337 364.76 19.8657 365.187 20.175 365.752C20.4843 366.317 20.639 367 20.639 367.8V373H18.831V368.072C18.831 367.283 18.6337 366.68 18.239 366.264C17.8443 365.837 17.3057 365.624 16.623 365.624C15.9403 365.624 15.3963 365.837 14.991 366.264C14.5963 366.68 14.399 367.283 14.399 368.072V373H12.575V364.184H14.399V365.192C14.6977 364.829 15.0763 364.547 15.535 364.344C16.0043 364.141 16.5003 364.04 17.023 364.04ZM25.0936 365.672V370.552C25.0936 370.883 25.1683 371.123 25.3176 371.272C25.4776 371.411 25.7443 371.48 26.1176 371.48H27.2376V373H25.7976C24.9763 373 24.347 372.808 23.9096 372.424C23.4723 372.04 23.2536 371.416 23.2536 370.552V365.672H22.2136V364.184H23.2536V361.992H25.0936V364.184H27.2376V365.672H25.0936ZM36.9028 364.184V373H35.0788V371.96C34.7908 372.323 34.4121 372.611 33.9428 372.824C33.4841 373.027 32.9934 373.128 32.4708 373.128C31.7774 373.128 31.1534 372.984 30.5988 372.696C30.0548 372.408 29.6228 371.981 29.3028 371.416C28.9934 370.851 28.8388 370.168 28.8388 369.368V364.184H30.6468V369.096C30.6468 369.885 30.8441 370.493 31.2388 370.92C31.6334 371.336 32.1721 371.544 32.8548 371.544C33.5374 371.544 34.0761 371.336 34.4708 370.92C34.8761 370.493 35.0788 369.885 35.0788 369.096V364.184H36.9028ZM42.7974 368.6L46.8614 373H44.3974L41.1334 369.208V373H39.3094V361.16H41.1334V368.04L44.3334 364.184H46.8614L42.7974 368.6ZM62.997 364.04C63.6903 364.04 64.309 364.184 64.853 364.472C65.4077 364.76 65.8397 365.187 66.149 365.752C66.469 366.317 66.629 367 66.629 367.8V373H64.821V368.072C64.821 367.283 64.6237 366.68 64.229 366.264C63.8343 365.837 63.2957 365.624 62.613 365.624C61.9303 365.624 61.3863 365.837 60.981 366.264C60.5863 366.68 60.389 367.283 60.389 368.072V373H58.581V368.072C58.581 367.283 58.3837 366.68 57.989 366.264C57.5943 365.837 57.0557 365.624 56.373 365.624C55.6903 365.624 55.1463 365.837 54.741 366.264C54.3463 366.68 54.149 367.283 54.149 368.072V373H52.325V364.184H54.149V365.192C54.4477 364.829 54.8263 364.547 55.285 364.344C55.7437 364.141 56.2343 364.04 56.757 364.04C57.461 364.04 58.0903 364.189 58.645 364.488C59.1997 364.787 59.6263 365.219 59.925 365.784C60.1917 365.251 60.6077 364.829 61.173 364.52C61.7383 364.2 62.3463 364.04 62.997 364.04ZM77.03 368.376C77.03 368.707 77.0087 369.005 76.966 369.272H70.23C70.2833 369.976 70.5447 370.541 71.014 370.968C71.4833 371.395 72.0593 371.608 72.742 371.608C73.7233 371.608 74.4167 371.197 74.822 370.376H76.79C76.5233 371.187 76.038 371.853 75.334 372.376C74.6407 372.888 73.7767 373.144 72.742 373.144C71.8993 373.144 71.142 372.957 70.47 372.584C69.8087 372.2 69.286 371.667 68.902 370.984C68.5287 370.291 68.342 369.491 68.342 368.584C68.342 367.677 68.5233 366.883 68.886 366.2C69.2593 365.507 69.7767 364.973 70.438 364.6C71.11 364.227 71.878 364.04 72.742 364.04C73.574 364.04 74.3153 364.221 74.966 364.584C75.6167 364.947 76.1233 365.459 76.486 366.12C76.8487 366.771 77.03 367.523 77.03 368.376ZM75.126 367.8C75.1153 367.128 74.8753 366.589 74.406 366.184C73.9367 365.779 73.3553 365.576 72.662 365.576C72.0327 365.576 71.494 365.779 71.046 366.184C70.598 366.579 70.3313 367.117 70.246 367.8H75.126ZM89.497 364.04C90.1903 364.04 90.809 364.184 91.353 364.472C91.9077 364.76 92.3397 365.187 92.649 365.752C92.969 366.317 93.129 367 93.129 367.8V373H91.321V368.072C91.321 367.283 91.1237 366.68 90.729 366.264C90.3343 365.837 89.7957 365.624 89.113 365.624C88.4303 365.624 87.8863 365.837 87.481 366.264C87.0863 366.68 86.889 367.283 86.889 368.072V373H85.081V368.072C85.081 367.283 84.8837 366.68 84.489 366.264C84.0943 365.837 83.5557 365.624 82.873 365.624C82.1903 365.624 81.6463 365.837 81.241 366.264C80.8463 366.68 80.649 367.283 80.649 368.072V373H78.825V364.184H80.649V365.192C80.9477 364.829 81.3263 364.547 81.785 364.344C82.2437 364.141 82.7343 364.04 83.257 364.04C83.961 364.04 84.5903 364.189 85.145 364.488C85.6997 364.787 86.1263 365.219 86.425 365.784C86.6917 365.251 87.1077 364.829 87.673 364.52C88.2383 364.2 88.8463 364.04 89.497 364.04ZM97.274 365.496C97.5833 365.069 98.0047 364.723 98.538 364.456C99.082 364.179 99.6847 364.04 100.346 364.04C101.125 364.04 101.829 364.227 102.458 364.6C103.087 364.973 103.583 365.507 103.946 366.2C104.309 366.883 104.49 367.667 104.49 368.552C104.49 369.437 104.309 370.232 103.946 370.936C103.583 371.629 103.082 372.173 102.442 372.568C101.813 372.952 101.114 373.144 100.346 373.144C99.6633 373.144 99.0553 373.011 98.522 372.744C97.9993 372.477 97.5833 372.136 97.274 371.72V373H95.45V361.16H97.274V365.496ZM102.634 368.552C102.634 367.944 102.506 367.421 102.25 366.984C102.005 366.536 101.674 366.2 101.258 365.976C100.853 365.741 100.415 365.624 99.946 365.624C99.4873 365.624 99.05 365.741 98.634 365.976C98.2287 366.211 97.898 366.552 97.642 367C97.3967 367.448 97.274 367.976 97.274 368.584C97.274 369.192 97.3967 369.725 97.642 370.184C97.898 370.632 98.2287 370.973 98.634 371.208C99.05 371.443 99.4873 371.56 99.946 371.56C100.415 371.56 100.853 371.443 101.258 371.208C101.674 370.963 102.005 370.611 102.25 370.152C102.506 369.693 102.634 369.16 102.634 368.552ZM114.278 364.184V373H112.454V371.96C112.166 372.323 111.787 372.611 111.318 372.824C110.859 373.027 110.368 373.128 109.846 373.128C109.152 373.128 108.528 372.984 107.974 372.696C107.43 372.408 106.998 371.981 106.678 371.416C106.368 370.851 106.214 370.168 106.214 369.368V364.184H108.022V369.096C108.022 369.885 108.219 370.493 108.614 370.92C109.008 371.336 109.547 371.544 110.23 371.544C110.912 371.544 111.451 371.336 111.846 370.92C112.251 370.493 112.454 369.885 112.454 369.096V364.184H114.278ZM116.076 368.552C116.076 367.667 116.258 366.883 116.62 366.2C116.994 365.517 117.495 364.989 118.124 364.616C118.764 364.232 119.468 364.04 120.236 364.04C120.93 364.04 121.532 364.179 122.044 364.456C122.567 364.723 122.983 365.059 123.292 365.464V364.184H125.132V373H123.292V371.688C122.983 372.104 122.562 372.451 122.028 372.728C121.495 373.005 120.887 373.144 120.204 373.144C119.447 373.144 118.754 372.952 118.124 372.568C117.495 372.173 116.994 371.629 116.62 370.936C116.258 370.232 116.076 369.437 116.076 368.552ZM123.292 368.584C123.292 367.976 123.164 367.448 122.908 367C122.663 366.552 122.338 366.211 121.932 365.976C121.527 365.741 121.09 365.624 120.62 365.624C120.151 365.624 119.714 365.741 119.308 365.976C118.903 366.2 118.572 366.536 118.316 366.984C118.071 367.421 117.948 367.944 117.948 368.552C117.948 369.16 118.071 369.693 118.316 370.152C118.572 370.611 118.903 370.963 119.308 371.208C119.724 371.443 120.162 371.56 120.62 371.56C121.09 371.56 121.527 371.443 121.932 371.208C122.338 370.973 122.663 370.632 122.908 370.184C123.164 369.725 123.292 369.192 123.292 368.584ZM129.656 365.672V370.552C129.656 370.883 129.731 371.123 129.88 371.272C130.04 371.411 130.307 371.48 130.68 371.48H131.8V373H130.36C129.539 373 128.909 372.808 128.472 372.424C128.035 372.04 127.816 371.416 127.816 370.552V365.672H126.776V364.184H127.816V361.992H129.656V364.184H131.8V365.672H129.656ZM143.414 373L140.854 368.552H139.462V373H137.638V361.88H141.478C142.331 361.88 143.051 362.029 143.638 362.328C144.235 362.627 144.678 363.027 144.966 363.528C145.264 364.029 145.414 364.589 145.414 365.208C145.414 365.933 145.2 366.595 144.774 367.192C144.358 367.779 143.712 368.179 142.838 368.392L145.59 373H143.414ZM139.462 367.096H141.478C142.16 367.096 142.672 366.925 143.014 366.584C143.366 366.243 143.542 365.784 143.542 365.208C143.542 364.632 143.371 364.184 143.03 363.864C142.688 363.533 142.171 363.368 141.478 363.368H139.462V367.096ZM155.827 368.376C155.827 368.707 155.806 369.005 155.763 369.272H149.027C149.08 369.976 149.342 370.541 149.811 370.968C150.28 371.395 150.856 371.608 151.539 371.608C152.52 371.608 153.214 371.197 153.619 370.376H155.587C155.32 371.187 154.835 371.853 154.131 372.376C153.438 372.888 152.574 373.144 151.539 373.144C150.696 373.144 149.939 372.957 149.267 372.584C148.606 372.2 148.083 371.667 147.699 370.984C147.326 370.291 147.139 369.491 147.139 368.584C147.139 367.677 147.32 366.883 147.683 366.2C148.056 365.507 148.574 364.973 149.235 364.6C149.907 364.227 150.675 364.04 151.539 364.04C152.371 364.04 153.112 364.221 153.763 364.584C154.414 364.947 154.92 365.459 155.283 366.12C155.646 366.771 155.827 367.523 155.827 368.376ZM153.923 367.8C153.912 367.128 153.672 366.589 153.203 366.184C152.734 365.779 152.152 365.576 151.459 365.576C150.83 365.576 150.291 365.779 149.843 366.184C149.395 366.579 149.128 367.117 149.043 367.8H153.923ZM161.11 368.6L165.174 373H162.71L159.446 369.208V373H157.622V361.16H159.446V368.04L162.646 364.184H165.174L161.11 368.6ZM165.873 368.552C165.873 367.667 166.055 366.883 166.417 366.2C166.791 365.517 167.292 364.989 167.921 364.616C168.561 364.232 169.265 364.04 170.033 364.04C170.727 364.04 171.329 364.179 171.841 364.456C172.364 364.723 172.78 365.059 173.089 365.464V364.184H174.929V373H173.089V371.688C172.78 372.104 172.359 372.451 171.825 372.728C171.292 373.005 170.684 373.144 170.001 373.144C169.244 373.144 168.551 372.952 167.921 372.568C167.292 372.173 166.791 371.629 166.417 370.936C166.055 370.232 165.873 369.437 165.873 368.552ZM173.089 368.584C173.089 367.976 172.961 367.448 172.705 367C172.46 366.552 172.135 366.211 171.729 365.976C171.324 365.741 170.887 365.624 170.417 365.624C169.948 365.624 169.511 365.741 169.105 365.976C168.7 366.2 168.369 366.536 168.113 366.984C167.868 367.421 167.745 367.944 167.745 368.552C167.745 369.16 167.868 369.693 168.113 370.152C168.369 370.611 168.7 370.963 169.105 371.208C169.521 371.443 169.959 371.56 170.417 371.56C170.887 371.56 171.324 371.443 171.729 371.208C172.135 370.973 172.46 370.632 172.705 370.184C172.961 369.725 173.089 369.192 173.089 368.584ZM179.149 365.48C179.458 365.075 179.88 364.733 180.413 364.456C180.946 364.179 181.549 364.04 182.221 364.04C182.989 364.04 183.688 364.232 184.317 364.616C184.957 364.989 185.458 365.517 185.821 366.2C186.184 366.883 186.365 367.667 186.365 368.552C186.365 369.437 186.184 370.232 185.821 370.936C185.458 371.629 184.957 372.173 184.317 372.568C183.688 372.952 182.989 373.144 182.221 373.144C181.549 373.144 180.952 373.011 180.429 372.744C179.906 372.467 179.48 372.125 179.149 371.72V377.192H177.325V364.184H179.149V365.48ZM184.509 368.552C184.509 367.944 184.381 367.421 184.125 366.984C183.88 366.536 183.549 366.2 183.133 365.976C182.728 365.741 182.29 365.624 181.821 365.624C181.362 365.624 180.925 365.741 180.509 365.976C180.104 366.211 179.773 366.552 179.517 367C179.272 367.448 179.149 367.976 179.149 368.584C179.149 369.192 179.272 369.725 179.517 370.184C179.773 370.632 180.104 370.973 180.509 371.208C180.925 371.443 181.362 371.56 181.821 371.56C182.29 371.56 182.728 371.443 183.133 371.208C183.549 370.963 183.88 370.611 184.125 370.152C184.381 369.693 184.509 369.16 184.509 368.552ZM196.773 364.04C197.466 364.04 198.085 364.184 198.629 364.472C199.184 364.76 199.616 365.187 199.925 365.752C200.234 366.317 200.389 367 200.389 367.8V373H198.581V368.072C198.581 367.283 198.384 366.68 197.989 366.264C197.594 365.837 197.056 365.624 196.373 365.624C195.69 365.624 195.146 365.837 194.741 366.264C194.346 366.68 194.149 367.283 194.149 368.072V373H192.325V364.184H194.149V365.192C194.448 364.829 194.826 364.547 195.285 364.344C195.754 364.141 196.25 364.04 196.773 364.04ZM203.644 363.016C203.313 363.016 203.036 362.904 202.812 362.68C202.588 362.456 202.476 362.179 202.476 361.848C202.476 361.517 202.588 361.24 202.812 361.016C203.036 360.792 203.313 360.68 203.644 360.68C203.964 360.68 204.236 360.792 204.46 361.016C204.684 361.24 204.796 361.517 204.796 361.848C204.796 362.179 204.684 362.456 204.46 362.68C204.236 362.904 203.964 363.016 203.644 363.016ZM204.54 364.184V373H202.716V364.184H204.54ZM208.758 361.16V373H206.934V361.16H208.758ZM210.545 368.552C210.545 367.667 210.726 366.883 211.089 366.2C211.462 365.517 211.964 364.989 212.593 364.616C213.233 364.232 213.937 364.04 214.705 364.04C215.398 364.04 216.001 364.179 216.513 364.456C217.036 364.723 217.452 365.059 217.761 365.464V364.184H219.601V373H217.761V371.688C217.452 372.104 217.03 372.451 216.497 372.728C215.964 373.005 215.356 373.144 214.673 373.144C213.916 373.144 213.222 372.952 212.593 372.568C211.964 372.173 211.462 371.629 211.089 370.936C210.726 370.232 210.545 369.437 210.545 368.552ZM217.761 368.584C217.761 367.976 217.633 367.448 217.377 367C217.132 366.552 216.806 366.211 216.401 365.976C215.996 365.741 215.558 365.624 215.089 365.624C214.62 365.624 214.182 365.741 213.777 365.976C213.372 366.2 213.041 366.536 212.785 366.984C212.54 367.421 212.417 367.944 212.417 368.552C212.417 369.16 212.54 369.693 212.785 370.152C213.041 370.611 213.372 370.963 213.777 371.208C214.193 371.443 214.63 371.56 215.089 371.56C215.558 371.56 215.996 371.443 216.401 371.208C216.806 370.973 217.132 370.632 217.377 370.184C217.633 369.725 217.761 369.192 217.761 368.584ZM222.925 363.016C222.594 363.016 222.317 362.904 222.093 362.68C221.869 362.456 221.757 362.179 221.757 361.848C221.757 361.517 221.869 361.24 222.093 361.016C222.317 360.792 222.594 360.68 222.925 360.68C223.245 360.68 223.517 360.792 223.741 361.016C223.965 361.24 224.077 361.517 224.077 361.848C224.077 362.179 223.965 362.456 223.741 362.68C223.517 362.904 223.245 363.016 222.925 363.016ZM223.821 364.184V373H221.997V364.184H223.821ZM234.036 373.112C233.289 373.112 232.617 372.984 232.02 372.728C231.423 372.461 230.953 372.088 230.612 371.608C230.271 371.128 230.1 370.568 230.1 369.928H232.052C232.095 370.408 232.281 370.803 232.612 371.112C232.953 371.421 233.428 371.576 234.036 371.576C234.665 371.576 235.156 371.427 235.508 371.128C235.86 370.819 236.036 370.424 236.036 369.944C236.036 369.571 235.924 369.267 235.7 369.032C235.487 368.797 235.215 368.616 234.884 368.488C234.564 368.36 234.116 368.221 233.54 368.072C232.815 367.88 232.223 367.688 231.764 367.496C231.316 367.293 230.932 366.984 230.612 366.568C230.292 366.152 230.132 365.597 230.132 364.904C230.132 364.264 230.292 363.704 230.612 363.224C230.932 362.744 231.38 362.376 231.956 362.12C232.532 361.864 233.199 361.736 233.956 361.736C235.033 361.736 235.913 362.008 236.596 362.552C237.289 363.085 237.673 363.821 237.748 364.76H235.732C235.7 364.355 235.508 364.008 235.156 363.72C234.804 363.432 234.34 363.288 233.764 363.288C233.241 363.288 232.815 363.421 232.484 363.688C232.153 363.955 231.988 364.339 231.988 364.84C231.988 365.181 232.089 365.464 232.292 365.688C232.505 365.901 232.772 366.072 233.092 366.2C233.412 366.328 233.849 366.467 234.404 366.616C235.14 366.819 235.737 367.021 236.196 367.224C236.665 367.427 237.06 367.741 237.38 368.168C237.711 368.584 237.876 369.144 237.876 369.848C237.876 370.413 237.721 370.947 237.412 371.448C237.113 371.949 236.671 372.355 236.084 372.664C235.508 372.963 234.825 373.112 234.036 373.112ZM240.956 363.016C240.625 363.016 240.348 362.904 240.124 362.68C239.9 362.456 239.788 362.179 239.788 361.848C239.788 361.517 239.9 361.24 240.124 361.016C240.348 360.792 240.625 360.68 240.956 360.68C241.276 360.68 241.548 360.792 241.772 361.016C241.996 361.24 242.108 361.517 242.108 361.848C242.108 362.179 241.996 362.456 241.772 362.68C241.548 362.904 241.276 363.016 240.956 363.016ZM241.852 364.184V373H240.028V364.184H241.852ZM247.447 373.144C246.754 373.144 246.13 373.021 245.575 372.776C245.031 372.52 244.599 372.179 244.279 371.752C243.959 371.315 243.788 370.829 243.767 370.296H245.655C245.687 370.669 245.863 370.984 246.183 371.24C246.514 371.485 246.924 371.608 247.415 371.608C247.927 371.608 248.322 371.512 248.599 371.32C248.887 371.117 249.031 370.861 249.031 370.552C249.031 370.221 248.871 369.976 248.551 369.816C248.242 369.656 247.746 369.48 247.063 369.288C246.402 369.107 245.863 368.931 245.447 368.76C245.031 368.589 244.668 368.328 244.359 367.976C244.06 367.624 243.911 367.16 243.911 366.584C243.911 366.115 244.05 365.688 244.327 365.304C244.604 364.909 244.999 364.6 245.511 364.376C246.034 364.152 246.631 364.04 247.303 364.04C248.306 364.04 249.111 364.296 249.719 364.808C250.338 365.309 250.668 365.997 250.711 366.872H248.887C248.855 366.477 248.695 366.163 248.407 365.928C248.119 365.693 247.73 365.576 247.239 365.576C246.759 365.576 246.391 365.667 246.135 365.848C245.879 366.029 245.751 366.269 245.751 366.568C245.751 366.803 245.836 367 246.007 367.16C246.178 367.32 246.386 367.448 246.631 367.544C246.876 367.629 247.239 367.741 247.719 367.88C248.359 368.051 248.882 368.227 249.287 368.408C249.703 368.579 250.06 368.835 250.359 369.176C250.658 369.517 250.812 369.971 250.823 370.536C250.823 371.037 250.684 371.485 250.407 371.88C250.13 372.275 249.735 372.584 249.223 372.808C248.722 373.032 248.13 373.144 247.447 373.144ZM264.634 364.184L261.898 373H259.978L258.202 366.488L256.426 373H254.506L251.754 364.184H253.61L255.45 371.272L257.322 364.184H259.226L261.018 371.24L262.842 364.184H264.634ZM265.389 368.552C265.389 367.667 265.57 366.883 265.933 366.2C266.306 365.517 266.808 364.989 267.437 364.616C268.077 364.232 268.781 364.04 269.549 364.04C270.242 364.04 270.845 364.179 271.357 364.456C271.88 364.723 272.296 365.059 272.605 365.464V364.184H274.445V373H272.605V371.688C272.296 372.104 271.874 372.451 271.341 372.728C270.808 373.005 270.2 373.144 269.517 373.144C268.76 373.144 268.066 372.952 267.437 372.568C266.808 372.173 266.306 371.629 265.933 370.936C265.57 370.232 265.389 369.437 265.389 368.552ZM272.605 368.584C272.605 367.976 272.477 367.448 272.221 367C271.976 366.552 271.65 366.211 271.245 365.976C270.84 365.741 270.402 365.624 269.933 365.624C269.464 365.624 269.026 365.741 268.621 365.976C268.216 366.2 267.885 366.536 267.629 366.984C267.384 367.421 267.261 367.944 267.261 368.552C267.261 369.16 267.384 369.693 267.629 370.152C267.885 370.611 268.216 370.963 268.621 371.208C269.037 371.443 269.474 371.56 269.933 371.56C270.402 371.56 270.84 371.443 271.245 371.208C271.65 370.973 271.976 370.632 272.221 370.184C272.477 369.725 272.605 369.192 272.605 368.584ZM278.841 370.808L276.905 375.224H275.721L276.857 370.808H278.841ZM286.415 365.48C286.724 365.075 287.145 364.733 287.679 364.456C288.212 364.179 288.815 364.04 289.487 364.04C290.255 364.04 290.953 364.232 291.583 364.616C292.223 364.989 292.724 365.517 293.087 366.2C293.449 366.883 293.631 367.667 293.631 368.552C293.631 369.437 293.449 370.232 293.087 370.936C292.724 371.629 292.223 372.173 291.583 372.568C290.953 372.952 290.255 373.144 289.487 373.144C288.815 373.144 288.217 373.011 287.695 372.744C287.172 372.467 286.745 372.125 286.415 371.72V377.192H284.591V364.184H286.415V365.48ZM291.775 368.552C291.775 367.944 291.647 367.421 291.391 366.984C291.145 366.536 290.815 366.2 290.399 365.976C289.993 365.741 289.556 365.624 289.087 365.624C288.628 365.624 288.191 365.741 287.775 365.976C287.369 366.211 287.039 366.552 286.783 367C286.537 367.448 286.415 367.976 286.415 368.584C286.415 369.192 286.537 369.725 286.783 370.184C287.039 370.632 287.369 370.973 287.775 371.208C288.191 371.443 288.628 371.56 289.087 371.56C289.556 371.56 289.993 371.443 290.399 371.208C290.815 370.963 291.145 370.611 291.391 370.152C291.647 369.693 291.775 369.16 291.775 368.552ZM296.362 363.016C296.032 363.016 295.754 362.904 295.53 362.68C295.306 362.456 295.194 362.179 295.194 361.848C295.194 361.517 295.306 361.24 295.53 361.016C295.754 360.792 296.032 360.68 296.362 360.68C296.682 360.68 296.954 360.792 297.178 361.016C297.402 361.24 297.514 361.517 297.514 361.848C297.514 362.179 297.402 362.456 297.178 362.68C296.954 362.904 296.682 363.016 296.362 363.016ZM297.258 364.184V373H295.434V364.184H297.258ZM301.477 361.16V373H299.653V361.16H301.477ZM304.8 363.016C304.469 363.016 304.192 362.904 303.968 362.68C303.744 362.456 303.632 362.179 303.632 361.848C303.632 361.517 303.744 361.24 303.968 361.016C304.192 360.792 304.469 360.68 304.8 360.68C305.12 360.68 305.392 360.792 305.616 361.016C305.84 361.24 305.952 361.517 305.952 361.848C305.952 362.179 305.84 362.456 305.616 362.68C305.392 362.904 305.12 363.016 304.8 363.016ZM305.696 364.184V373H303.872V364.184H305.696ZM312.651 364.04C313.323 364.04 313.92 364.184 314.443 364.472C314.976 364.76 315.392 365.187 315.691 365.752C316 366.317 316.155 367 316.155 367.8V373H314.347V368.072C314.347 367.283 314.149 366.68 313.755 366.264C313.36 365.837 312.821 365.624 312.139 365.624C311.456 365.624 310.912 365.837 310.507 366.264C310.112 366.68 309.915 367.283 309.915 368.072V373H308.091V361.16H309.915V365.208C310.224 364.835 310.613 364.547 311.083 364.344C311.563 364.141 312.085 364.04 312.651 364.04ZM322.03 368.552C322.03 367.667 322.211 366.883 322.574 366.2C322.947 365.517 323.448 364.989 324.078 364.616C324.718 364.232 325.427 364.04 326.206 364.04C326.782 364.04 327.347 364.168 327.902 364.424C328.467 364.669 328.915 365 329.246 365.416V361.16H331.086V373H329.246V371.672C328.947 372.099 328.531 372.451 327.998 372.728C327.475 373.005 326.872 373.144 326.19 373.144C325.422 373.144 324.718 372.952 324.078 372.568C323.448 372.173 322.947 371.629 322.574 370.936C322.211 370.232 322.03 369.437 322.03 368.552ZM329.246 368.584C329.246 367.976 329.118 367.448 328.862 367C328.616 366.552 328.291 366.211 327.886 365.976C327.48 365.741 327.043 365.624 326.574 365.624C326.104 365.624 325.667 365.741 325.262 365.976C324.856 366.2 324.526 366.536 324.27 366.984C324.024 367.421 323.902 367.944 323.902 368.552C323.902 369.16 324.024 369.693 324.27 370.152C324.526 370.611 324.856 370.963 325.262 371.208C325.678 371.443 326.115 371.56 326.574 371.56C327.043 371.56 327.48 371.443 327.886 371.208C328.291 370.973 328.616 370.632 328.862 370.184C329.118 369.725 329.246 369.192 329.246 368.584ZM335.305 365.464C335.572 365.016 335.924 364.669 336.361 364.424C336.809 364.168 337.337 364.04 337.945 364.04V365.928H337.481C336.767 365.928 336.223 366.109 335.849 366.472C335.487 366.835 335.305 367.464 335.305 368.36V373H333.481V364.184H335.305V365.464ZM343.446 373.144C342.614 373.144 341.862 372.957 341.19 372.584C340.518 372.2 339.99 371.667 339.606 370.984C339.222 370.291 339.03 369.491 339.03 368.584C339.03 367.688 339.227 366.893 339.622 366.2C340.017 365.507 340.555 364.973 341.238 364.6C341.921 364.227 342.683 364.04 343.526 364.04C344.369 364.04 345.131 364.227 345.814 364.6C346.497 364.973 347.035 365.507 347.43 366.2C347.825 366.893 348.022 367.688 348.022 368.584C348.022 369.48 347.819 370.275 347.414 370.968C347.009 371.661 346.454 372.2 345.75 372.584C345.057 372.957 344.289 373.144 343.446 373.144ZM343.446 371.56C343.915 371.56 344.353 371.448 344.758 371.224C345.174 371 345.51 370.664 345.766 370.216C346.022 369.768 346.15 369.224 346.15 368.584C346.15 367.944 346.027 367.405 345.782 366.968C345.537 366.52 345.211 366.184 344.806 365.96C344.401 365.736 343.963 365.624 343.494 365.624C343.025 365.624 342.587 365.736 342.182 365.96C341.787 366.184 341.473 366.52 341.238 366.968C341.003 367.405 340.886 367.944 340.886 368.584C340.886 369.533 341.126 370.269 341.606 370.792C342.097 371.304 342.71 371.56 343.446 371.56ZM351.649 365.48C351.958 365.075 352.38 364.733 352.913 364.456C353.446 364.179 354.049 364.04 354.721 364.04C355.489 364.04 356.188 364.232 356.817 364.616C357.457 364.989 357.958 365.517 358.321 366.2C358.684 366.883 358.865 367.667 358.865 368.552C358.865 369.437 358.684 370.232 358.321 370.936C357.958 371.629 357.457 372.173 356.817 372.568C356.188 372.952 355.489 373.144 354.721 373.144C354.049 373.144 353.452 373.011 352.929 372.744C352.406 372.467 351.98 372.125 351.649 371.72V377.192H349.825V364.184H351.649V365.48ZM357.009 368.552C357.009 367.944 356.881 367.421 356.625 366.984C356.38 366.536 356.049 366.2 355.633 365.976C355.228 365.741 354.79 365.624 354.321 365.624C353.862 365.624 353.425 365.741 353.009 365.976C352.604 366.211 352.273 366.552 352.017 367C351.772 367.448 351.649 367.976 351.649 368.584C351.649 369.192 351.772 369.725 352.017 370.184C352.273 370.632 352.604 370.973 353.009 371.208C353.425 371.443 353.862 371.56 354.321 371.56C354.79 371.56 355.228 371.443 355.633 371.208C356.049 370.963 356.38 370.611 356.625 370.152C356.881 369.693 357.009 369.16 357.009 368.552ZM360.061 368.552C360.061 367.667 360.242 366.883 360.605 366.2C360.978 365.517 361.479 364.989 362.109 364.616C362.749 364.232 363.458 364.04 364.237 364.04C364.813 364.04 365.378 364.168 365.933 364.424C366.498 364.669 366.946 365 367.277 365.416V361.16H369.117V373H367.277V371.672C366.978 372.099 366.562 372.451 366.029 372.728C365.506 373.005 364.903 373.144 364.221 373.144C363.453 373.144 362.749 372.952 362.109 372.568C361.479 372.173 360.978 371.629 360.605 370.936C360.242 370.232 360.061 369.437 360.061 368.552ZM367.277 368.584C367.277 367.976 367.149 367.448 366.893 367C366.647 366.552 366.322 366.211 365.917 365.976C365.511 365.741 365.074 365.624 364.605 365.624C364.135 365.624 363.698 365.741 363.293 365.976C362.887 366.2 362.557 366.536 362.301 366.984C362.055 367.421 361.933 367.944 361.933 368.552C361.933 369.16 362.055 369.693 362.301 370.152C362.557 370.611 362.887 370.963 363.293 371.208C363.709 371.443 364.146 371.56 364.605 371.56C365.074 371.56 365.511 371.443 365.917 371.208C366.322 370.973 366.647 370.632 366.893 370.184C367.149 369.725 367.277 369.192 367.277 368.584ZM375.337 373.144C374.505 373.144 373.753 372.957 373.081 372.584C372.409 372.2 371.881 371.667 371.497 370.984C371.113 370.291 370.921 369.491 370.921 368.584C370.921 367.688 371.118 366.893 371.513 366.2C371.907 365.507 372.446 364.973 373.129 364.6C373.811 364.227 374.574 364.04 375.417 364.04C376.259 364.04 377.022 364.227 377.705 364.6C378.387 364.973 378.926 365.507 379.321 366.2C379.715 366.893 379.913 367.688 379.913 368.584C379.913 369.48 379.71 370.275 379.305 370.968C378.899 371.661 378.345 372.2 377.641 372.584C376.947 372.957 376.179 373.144 375.337 373.144ZM375.337 371.56C375.806 371.56 376.243 371.448 376.649 371.224C377.065 371 377.401 370.664 377.657 370.216C377.913 369.768 378.041 369.224 378.041 368.584C378.041 367.944 377.918 367.405 377.673 366.968C377.427 366.52 377.102 366.184 376.697 365.96C376.291 365.736 375.854 365.624 375.385 365.624C374.915 365.624 374.478 365.736 374.073 365.96C373.678 366.184 373.363 366.52 373.129 366.968C372.894 367.405 372.777 367.944 372.777 368.584C372.777 369.533 373.017 370.269 373.497 370.792C373.987 371.304 374.601 371.56 375.337 371.56ZM393.556 364.184L390.82 373H388.9L387.124 366.488L385.348 373H383.428L380.676 364.184H382.532L384.372 371.272L386.244 364.184H388.148L389.94 371.24L391.764 364.184H393.556ZM399.367 364.04C400.06 364.04 400.679 364.184 401.223 364.472C401.777 364.76 402.209 365.187 402.519 365.752C402.828 366.317 402.983 367 402.983 367.8V373H401.175V368.072C401.175 367.283 400.977 366.68 400.583 366.264C400.188 365.837 399.649 365.624 398.967 365.624C398.284 365.624 397.74 365.837 397.335 366.264C396.94 366.68 396.743 367.283 396.743 368.072V373H394.919V364.184H396.743V365.192C397.041 364.829 397.42 364.547 397.879 364.344C398.348 364.141 398.844 364.04 399.367 364.04ZM408.858 368.552C408.858 367.667 409.039 366.883 409.402 366.2C409.775 365.517 410.276 364.989 410.906 364.616C411.546 364.232 412.255 364.04 413.034 364.04C413.61 364.04 414.175 364.168 414.73 364.424C415.295 364.669 415.743 365 416.074 365.416V361.16H417.914V373H416.074V371.672C415.775 372.099 415.359 372.451 414.826 372.728C414.303 373.005 413.7 373.144 413.018 373.144C412.25 373.144 411.546 372.952 410.906 372.568C410.276 372.173 409.775 371.629 409.402 370.936C409.039 370.232 408.858 369.437 408.858 368.552ZM416.074 368.584C416.074 367.976 415.946 367.448 415.69 367C415.444 366.552 415.119 366.211 414.714 365.976C414.308 365.741 413.871 365.624 413.402 365.624C412.932 365.624 412.495 365.741 412.09 365.976C411.684 366.2 411.354 366.536 411.098 366.984C410.852 367.421 410.73 367.944 410.73 368.552C410.73 369.16 410.852 369.693 411.098 370.152C411.354 370.611 411.684 370.963 412.09 371.208C412.506 371.443 412.943 371.56 413.402 371.56C413.871 371.56 414.308 371.443 414.714 371.208C415.119 370.973 415.444 370.632 415.69 370.184C415.946 369.725 416.074 369.192 416.074 368.584ZM421.237 363.016C420.907 363.016 420.629 362.904 420.405 362.68C420.181 362.456 420.069 362.179 420.069 361.848C420.069 361.517 420.181 361.24 420.405 361.016C420.629 360.792 420.907 360.68 421.237 360.68C421.557 360.68 421.829 360.792 422.053 361.016C422.277 361.24 422.389 361.517 422.389 361.848C422.389 362.179 422.277 362.456 422.053 362.68C421.829 362.904 421.557 363.016 421.237 363.016ZM422.133 364.184V373H420.309V364.184H422.133ZM423.92 368.552C423.92 367.667 424.101 366.883 424.464 366.2C424.837 365.517 425.339 364.989 425.968 364.616C426.608 364.232 427.312 364.04 428.08 364.04C428.773 364.04 429.376 364.179 429.888 364.456C430.411 364.723 430.827 365.059 431.136 365.464V364.184H432.976V373H431.136V371.688C430.827 372.104 430.405 372.451 429.872 372.728C429.339 373.005 428.731 373.144 428.048 373.144C427.291 373.144 426.597 372.952 425.968 372.568C425.339 372.173 424.837 371.629 424.464 370.936C424.101 370.232 423.92 369.437 423.92 368.552ZM431.136 368.584C431.136 367.976 431.008 367.448 430.752 367C430.507 366.552 430.181 366.211 429.776 365.976C429.371 365.741 428.933 365.624 428.464 365.624C427.995 365.624 427.557 365.741 427.152 365.976C426.747 366.2 426.416 366.536 426.16 366.984C425.915 367.421 425.792 367.944 425.792 368.552C425.792 369.16 425.915 369.693 426.16 370.152C426.416 370.611 426.747 370.963 427.152 371.208C427.568 371.443 428.005 371.56 428.464 371.56C428.933 371.56 429.371 371.443 429.776 371.208C430.181 370.973 430.507 370.632 430.752 370.184C431.008 369.725 431.136 369.192 431.136 368.584ZM437.5 365.672V370.552C437.5 370.883 437.575 371.123 437.724 371.272C437.884 371.411 438.151 371.48 438.524 371.48H439.644V373H438.204C437.383 373 436.753 372.808 436.316 372.424C435.879 372.04 435.66 371.416 435.66 370.552V365.672H434.62V364.184H435.66V361.992H437.5V364.184H439.644V365.672H437.5ZM440.717 368.552C440.717 367.667 440.898 366.883 441.261 366.2C441.634 365.517 442.136 364.989 442.765 364.616C443.405 364.232 444.109 364.04 444.877 364.04C445.57 364.04 446.173 364.179 446.685 364.456C447.208 364.723 447.624 365.059 447.933 365.464V364.184H449.773V373H447.933V371.688C447.624 372.104 447.202 372.451 446.669 372.728C446.136 373.005 445.528 373.144 444.845 373.144C444.088 373.144 443.394 372.952 442.765 372.568C442.136 372.173 441.634 371.629 441.261 370.936C440.898 370.232 440.717 369.437 440.717 368.552ZM447.933 368.584C447.933 367.976 447.805 367.448 447.549 367C447.304 366.552 446.978 366.211 446.573 365.976C446.168 365.741 445.73 365.624 445.261 365.624C444.792 365.624 444.354 365.741 443.949 365.976C443.544 366.2 443.213 366.536 442.957 366.984C442.712 367.421 442.589 367.944 442.589 368.552C442.589 369.16 442.712 369.693 442.957 370.152C443.213 370.611 443.544 370.963 443.949 371.208C444.365 371.443 444.802 371.56 445.261 371.56C445.73 371.56 446.168 371.443 446.573 371.208C446.978 370.973 447.304 370.632 447.549 370.184C447.805 369.725 447.933 369.192 447.933 368.584ZM455.369 373.144C454.675 373.144 454.051 373.021 453.497 372.776C452.953 372.52 452.521 372.179 452.201 371.752C451.881 371.315 451.71 370.829 451.689 370.296H453.577C453.609 370.669 453.785 370.984 454.105 371.24C454.435 371.485 454.846 371.608 455.337 371.608C455.849 371.608 456.243 371.512 456.521 371.32C456.809 371.117 456.953 370.861 456.953 370.552C456.953 370.221 456.793 369.976 456.473 369.816C456.163 369.656 455.667 369.48 454.985 369.288C454.323 369.107 453.785 368.931 453.369 368.76C452.953 368.589 452.59 368.328 452.281 367.976C451.982 367.624 451.833 367.16 451.833 366.584C451.833 366.115 451.971 365.688 452.249 365.304C452.526 364.909 452.921 364.6 453.433 364.376C453.955 364.152 454.553 364.04 455.225 364.04C456.227 364.04 457.033 364.296 457.641 364.808C458.259 365.309 458.59 365.997 458.633 366.872H456.809C456.777 366.477 456.617 366.163 456.329 365.928C456.041 365.693 455.651 365.576 455.161 365.576C454.681 365.576 454.313 365.667 454.057 365.848C453.801 366.029 453.673 366.269 453.673 366.568C453.673 366.803 453.758 367 453.929 367.16C454.099 367.32 454.307 367.448 454.553 367.544C454.798 367.629 455.161 367.741 455.641 367.88C456.281 368.051 456.803 368.227 457.209 368.408C457.625 368.579 457.982 368.835 458.281 369.176C458.579 369.517 458.734 369.971 458.745 370.536C458.745 371.037 458.606 371.485 458.329 371.88C458.051 372.275 457.657 372.584 457.145 372.808C456.643 373.032 456.051 373.144 455.369 373.144ZM72.1021 389.48C72.4115 389.075 72.8328 388.733 73.3661 388.456C73.8995 388.179 74.5021 388.04 75.1741 388.04C75.9421 388.04 76.6408 388.232 77.2701 388.616C77.9101 388.989 78.4115 389.517 78.7741 390.2C79.1368 390.883 79.3181 391.667 79.3181 392.552C79.3181 393.437 79.1368 394.232 78.7741 394.936C78.4115 395.629 77.9101 396.173 77.2701 396.568C76.6408 396.952 75.9421 397.144 75.1741 397.144C74.5021 397.144 73.9048 397.011 73.3821 396.744C72.8595 396.467 72.4328 396.125 72.1021 395.72V401.192H70.2781V388.184H72.1021V389.48ZM77.4621 392.552C77.4621 391.944 77.3341 391.421 77.0781 390.984C76.8328 390.536 76.5021 390.2 76.0861 389.976C75.6808 389.741 75.2435 389.624 74.7741 389.624C74.3155 389.624 73.8781 389.741 73.4621 389.976C73.0568 390.211 72.7261 390.552 72.4701 391C72.2248 391.448 72.1021 391.976 72.1021 392.584C72.1021 393.192 72.2248 393.725 72.4701 394.184C72.7261 394.632 73.0568 394.973 73.4621 395.208C73.8781 395.443 74.3155 395.56 74.7741 395.56C75.2435 395.56 75.6808 395.443 76.0861 395.208C76.5021 394.963 76.8328 394.611 77.0781 394.152C77.3341 393.693 77.4621 393.16 77.4621 392.552ZM80.5139 392.552C80.5139 391.667 80.6952 390.883 81.0579 390.2C81.4312 389.517 81.9325 388.989 82.5619 388.616C83.2019 388.232 83.9059 388.04 84.6739 388.04C85.3672 388.04 85.9699 388.179 86.4819 388.456C87.0045 388.723 87.4205 389.059 87.7299 389.464V388.184H89.5699V397H87.7299V395.688C87.4205 396.104 86.9992 396.451 86.4659 396.728C85.9325 397.005 85.3245 397.144 84.6419 397.144C83.8845 397.144 83.1912 396.952 82.5619 396.568C81.9325 396.173 81.4312 395.629 81.0579 394.936C80.6952 394.232 80.5139 393.437 80.5139 392.552ZM87.7299 392.584C87.7299 391.976 87.6019 391.448 87.3459 391C87.1005 390.552 86.7752 390.211 86.3699 389.976C85.9645 389.741 85.5272 389.624 85.0579 389.624C84.5885 389.624 84.1512 389.741 83.7459 389.976C83.3405 390.2 83.0099 390.536 82.7539 390.984C82.5085 391.421 82.3859 391.944 82.3859 392.552C82.3859 393.16 82.5085 393.693 82.7539 394.152C83.0099 394.611 83.3405 394.963 83.7459 395.208C84.1619 395.443 84.5992 395.56 85.0579 395.56C85.5272 395.56 85.9645 395.443 86.3699 395.208C86.7752 394.973 87.1005 394.632 87.3459 394.184C87.6019 393.725 87.7299 393.192 87.7299 392.584ZM95.1656 397.144C94.4723 397.144 93.8483 397.021 93.2936 396.776C92.7496 396.52 92.3176 396.179 91.9976 395.752C91.6776 395.315 91.507 394.829 91.4856 394.296H93.3736C93.4056 394.669 93.5816 394.984 93.9016 395.24C94.2323 395.485 94.643 395.608 95.1336 395.608C95.6456 395.608 96.0403 395.512 96.3176 395.32C96.6056 395.117 96.7496 394.861 96.7496 394.552C96.7496 394.221 96.5896 393.976 96.2696 393.816C95.9603 393.656 95.4643 393.48 94.7816 393.288C94.1203 393.107 93.5816 392.931 93.1656 392.76C92.7496 392.589 92.387 392.328 92.0776 391.976C91.779 391.624 91.6296 391.16 91.6296 390.584C91.6296 390.115 91.7683 389.688 92.0456 389.304C92.323 388.909 92.7176 388.6 93.2296 388.376C93.7523 388.152 94.3496 388.04 95.0216 388.04C96.0243 388.04 96.8296 388.296 97.4376 388.808C98.0563 389.309 98.387 389.997 98.4296 390.872H96.6056C96.5736 390.477 96.4136 390.163 96.1256 389.928C95.8376 389.693 95.4483 389.576 94.9576 389.576C94.4776 389.576 94.1096 389.667 93.8536 389.848C93.5976 390.029 93.4696 390.269 93.4696 390.568C93.4696 390.803 93.555 391 93.7256 391.16C93.8963 391.32 94.1043 391.448 94.3496 391.544C94.595 391.629 94.9576 391.741 95.4376 391.88C96.0776 392.051 96.6003 392.227 97.0056 392.408C97.4216 392.579 97.779 392.835 98.0776 393.176C98.3763 393.517 98.531 393.971 98.5416 394.536C98.5416 395.037 98.403 395.485 98.1256 395.88C97.8483 396.275 97.4536 396.584 96.9416 396.808C96.4403 397.032 95.8483 397.144 95.1656 397.144ZM102.641 389.672V394.552C102.641 394.883 102.715 395.123 102.865 395.272C103.025 395.411 103.291 395.48 103.665 395.48H104.785V397H103.345C102.523 397 101.894 396.808 101.457 396.424C101.019 396.04 100.801 395.416 100.801 394.552V389.672H99.7605V388.184H100.801V385.992H102.641V388.184H104.785V389.672H102.641ZM107.394 387.016C107.063 387.016 106.786 386.904 106.562 386.68C106.338 386.456 106.226 386.179 106.226 385.848C106.226 385.517 106.338 385.24 106.562 385.016C106.786 384.792 107.063 384.68 107.394 384.68C107.714 384.68 107.986 384.792 108.21 385.016C108.434 385.24 108.546 385.517 108.546 385.848C108.546 386.179 108.434 386.456 108.21 386.68C107.986 386.904 107.714 387.016 107.394 387.016ZM108.29 388.184V397H106.466V388.184H108.29ZM114.172 392.6L118.236 397H115.772L112.508 393.208V397H110.684V385.16H112.508V392.04L115.708 388.184H118.236L114.172 392.6ZM118.936 392.552C118.936 391.667 119.117 390.883 119.48 390.2C119.853 389.517 120.354 388.989 120.984 388.616C121.624 388.232 122.328 388.04 123.096 388.04C123.789 388.04 124.392 388.179 124.904 388.456C125.426 388.723 125.842 389.059 126.152 389.464V388.184H127.992V397H126.152V395.688C125.842 396.104 125.421 396.451 124.888 396.728C124.354 397.005 123.746 397.144 123.064 397.144C122.306 397.144 121.613 396.952 120.984 396.568C120.354 396.173 119.853 395.629 119.48 394.936C119.117 394.232 118.936 393.437 118.936 392.552ZM126.152 392.584C126.152 391.976 126.024 391.448 125.768 391C125.522 390.552 125.197 390.211 124.792 389.976C124.386 389.741 123.949 389.624 123.48 389.624C123.01 389.624 122.573 389.741 122.168 389.976C121.762 390.2 121.432 390.536 121.176 390.984C120.93 391.421 120.808 391.944 120.808 392.552C120.808 393.16 120.93 393.693 121.176 394.152C121.432 394.611 121.762 394.963 122.168 395.208C122.584 395.443 123.021 395.56 123.48 395.56C123.949 395.56 124.386 395.443 124.792 395.208C125.197 394.973 125.522 394.632 125.768 394.184C126.024 393.725 126.152 393.192 126.152 392.584ZM134.836 388.04C135.529 388.04 136.148 388.184 136.692 388.472C137.246 388.76 137.678 389.187 137.988 389.752C138.297 390.317 138.452 391 138.452 391.8V397H136.644V392.072C136.644 391.283 136.446 390.68 136.052 390.264C135.657 389.837 135.118 389.624 134.436 389.624C133.753 389.624 133.209 389.837 132.804 390.264C132.409 390.68 132.212 391.283 132.212 392.072V397H130.388V388.184H132.212V389.192C132.51 388.829 132.889 388.547 133.348 388.344C133.817 388.141 134.313 388.04 134.836 388.04ZM148.134 397.144C147.441 397.144 146.817 397.021 146.262 396.776C145.718 396.52 145.286 396.179 144.966 395.752C144.646 395.315 144.476 394.829 144.454 394.296H146.342C146.374 394.669 146.55 394.984 146.87 395.24C147.201 395.485 147.612 395.608 148.102 395.608C148.614 395.608 149.009 395.512 149.286 395.32C149.574 395.117 149.718 394.861 149.718 394.552C149.718 394.221 149.558 393.976 149.238 393.816C148.929 393.656 148.433 393.48 147.75 393.288C147.089 393.107 146.55 392.931 146.134 392.76C145.718 392.589 145.356 392.328 145.046 391.976C144.748 391.624 144.598 391.16 144.598 390.584C144.598 390.115 144.737 389.688 145.014 389.304C145.292 388.909 145.686 388.6 146.198 388.376C146.721 388.152 147.318 388.04 147.99 388.04C148.993 388.04 149.798 388.296 150.406 388.808C151.025 389.309 151.356 389.997 151.398 390.872H149.574C149.542 390.477 149.382 390.163 149.094 389.928C148.806 389.693 148.417 389.576 147.926 389.576C147.446 389.576 147.078 389.667 146.822 389.848C146.566 390.029 146.438 390.269 146.438 390.568C146.438 390.803 146.524 391 146.694 391.16C146.865 391.32 147.073 391.448 147.318 391.544C147.564 391.629 147.926 391.741 148.406 391.88C149.046 392.051 149.569 392.227 149.974 392.408C150.39 392.579 150.748 392.835 151.046 393.176C151.345 393.517 151.5 393.971 151.51 394.536C151.51 395.037 151.372 395.485 151.094 395.88C150.817 396.275 150.422 396.584 149.91 396.808C149.409 397.032 148.817 397.144 148.134 397.144ZM161.561 392.376C161.561 392.707 161.54 393.005 161.497 393.272H154.761C154.815 393.976 155.076 394.541 155.545 394.968C156.015 395.395 156.591 395.608 157.273 395.608C158.255 395.608 158.948 395.197 159.353 394.376H161.321C161.055 395.187 160.569 395.853 159.865 396.376C159.172 396.888 158.308 397.144 157.273 397.144C156.431 397.144 155.673 396.957 155.001 396.584C154.34 396.2 153.817 395.667 153.433 394.984C153.06 394.291 152.873 393.491 152.873 392.584C152.873 391.677 153.055 390.883 153.417 390.2C153.791 389.507 154.308 388.973 154.969 388.6C155.641 388.227 156.409 388.04 157.273 388.04C158.105 388.04 158.847 388.221 159.497 388.584C160.148 388.947 160.655 389.459 161.017 390.12C161.38 390.771 161.561 391.523 161.561 392.376ZM159.657 391.8C159.647 391.128 159.407 390.589 158.937 390.184C158.468 389.779 157.887 389.576 157.193 389.576C156.564 389.576 156.025 389.779 155.577 390.184C155.129 390.579 154.863 391.117 154.777 391.8H159.657ZM174.028 388.04C174.722 388.04 175.34 388.184 175.884 388.472C176.439 388.76 176.871 389.187 177.18 389.752C177.5 390.317 177.66 391 177.66 391.8V397H175.852V392.072C175.852 391.283 175.655 390.68 175.26 390.264C174.866 389.837 174.327 389.624 173.644 389.624C172.962 389.624 172.418 389.837 172.012 390.264C171.618 390.68 171.42 391.283 171.42 392.072V397H169.612V392.072C169.612 391.283 169.415 390.68 169.02 390.264C168.626 389.837 168.087 389.624 167.404 389.624C166.722 389.624 166.178 389.837 165.772 390.264C165.378 390.68 165.18 391.283 165.18 392.072V397H163.356V388.184H165.18V389.192C165.479 388.829 165.858 388.547 166.316 388.344C166.775 388.141 167.266 388.04 167.788 388.04C168.492 388.04 169.122 388.189 169.676 388.488C170.231 388.787 170.658 389.219 170.956 389.784C171.223 389.251 171.639 388.829 172.204 388.52C172.77 388.2 173.378 388.04 174.028 388.04ZM187.965 388.184V397H186.141V395.96C185.853 396.323 185.475 396.611 185.005 396.824C184.547 397.027 184.056 397.128 183.533 397.128C182.84 397.128 182.216 396.984 181.661 396.696C181.117 396.408 180.685 395.981 180.365 395.416C180.056 394.851 179.901 394.168 179.901 393.368V388.184H181.709V393.096C181.709 393.885 181.907 394.493 182.301 394.92C182.696 395.336 183.235 395.544 183.917 395.544C184.6 395.544 185.139 395.336 185.533 394.92C185.939 394.493 186.141 393.885 186.141 393.096V388.184H187.965ZM189.764 392.552C189.764 391.667 189.945 390.883 190.308 390.2C190.681 389.517 191.183 388.989 191.812 388.616C192.452 388.232 193.156 388.04 193.924 388.04C194.617 388.04 195.22 388.179 195.732 388.456C196.255 388.723 196.671 389.059 196.98 389.464V388.184H198.82V397H196.98V395.688C196.671 396.104 196.249 396.451 195.716 396.728C195.183 397.005 194.575 397.144 193.892 397.144C193.135 397.144 192.441 396.952 191.812 396.568C191.183 396.173 190.681 395.629 190.308 394.936C189.945 394.232 189.764 393.437 189.764 392.552ZM196.98 392.584C196.98 391.976 196.852 391.448 196.596 391C196.351 390.552 196.025 390.211 195.62 389.976C195.215 389.741 194.777 389.624 194.308 389.624C193.839 389.624 193.401 389.741 192.996 389.976C192.591 390.2 192.26 390.536 192.004 390.984C191.759 391.421 191.636 391.944 191.636 392.552C191.636 393.16 191.759 393.693 192.004 394.152C192.26 394.611 192.591 394.963 192.996 395.208C193.412 395.443 193.849 395.56 194.308 395.56C194.777 395.56 195.215 395.443 195.62 395.208C196.025 394.973 196.351 394.632 196.596 394.184C196.852 393.725 196.98 393.192 196.98 392.584ZM204.764 392.552C204.764 391.667 204.945 390.883 205.308 390.2C205.681 389.517 206.183 388.989 206.812 388.616C207.452 388.232 208.161 388.04 208.94 388.04C209.516 388.04 210.081 388.168 210.636 388.424C211.201 388.669 211.649 389 211.98 389.416V385.16H213.82V397H211.98V395.672C211.681 396.099 211.265 396.451 210.732 396.728C210.209 397.005 209.607 397.144 208.924 397.144C208.156 397.144 207.452 396.952 206.812 396.568C206.183 396.173 205.681 395.629 205.308 394.936C204.945 394.232 204.764 393.437 204.764 392.552ZM211.98 392.584C211.98 391.976 211.852 391.448 211.596 391C211.351 390.552 211.025 390.211 210.62 389.976C210.215 389.741 209.777 389.624 209.308 389.624C208.839 389.624 208.401 389.741 207.996 389.976C207.591 390.2 207.26 390.536 207.004 390.984C206.759 391.421 206.636 391.944 206.636 392.552C206.636 393.16 206.759 393.693 207.004 394.152C207.26 394.611 207.591 394.963 207.996 395.208C208.412 395.443 208.849 395.56 209.308 395.56C209.777 395.56 210.215 395.443 210.62 395.208C211.025 394.973 211.351 394.632 211.596 394.184C211.852 393.725 211.98 393.192 211.98 392.584ZM218.04 389.464C218.306 389.016 218.658 388.669 219.096 388.424C219.544 388.168 220.072 388.04 220.68 388.04V389.928H220.216C219.501 389.928 218.957 390.109 218.584 390.472C218.221 390.835 218.04 391.464 218.04 392.36V397H216.216V388.184H218.04V389.464ZM226.18 397.144C225.348 397.144 224.596 396.957 223.924 396.584C223.252 396.2 222.724 395.667 222.34 394.984C221.956 394.291 221.764 393.491 221.764 392.584C221.764 391.688 221.962 390.893 222.356 390.2C222.751 389.507 223.29 388.973 223.972 388.6C224.655 388.227 225.418 388.04 226.26 388.04C227.103 388.04 227.866 388.227 228.548 388.6C229.231 388.973 229.77 389.507 230.164 390.2C230.559 390.893 230.756 391.688 230.756 392.584C230.756 393.48 230.554 394.275 230.148 394.968C229.743 395.661 229.188 396.2 228.484 396.584C227.791 396.957 227.023 397.144 226.18 397.144ZM226.18 395.56C226.65 395.56 227.087 395.448 227.492 395.224C227.908 395 228.244 394.664 228.5 394.216C228.756 393.768 228.884 393.224 228.884 392.584C228.884 391.944 228.762 391.405 228.516 390.968C228.271 390.52 227.946 390.184 227.54 389.96C227.135 389.736 226.698 389.624 226.228 389.624C225.759 389.624 225.322 389.736 224.916 389.96C224.522 390.184 224.207 390.52 223.972 390.968C223.738 391.405 223.62 391.944 223.62 392.584C223.62 393.533 223.86 394.269 224.34 394.792C224.831 395.304 225.444 395.56 226.18 395.56ZM234.383 389.48C234.693 389.075 235.114 388.733 235.647 388.456C236.181 388.179 236.783 388.04 237.455 388.04C238.223 388.04 238.922 388.232 239.551 388.616C240.191 388.989 240.693 389.517 241.055 390.2C241.418 390.883 241.599 391.667 241.599 392.552C241.599 393.437 241.418 394.232 241.055 394.936C240.693 395.629 240.191 396.173 239.551 396.568C238.922 396.952 238.223 397.144 237.455 397.144C236.783 397.144 236.186 397.011 235.663 396.744C235.141 396.467 234.714 396.125 234.383 395.72V401.192H232.559V388.184H234.383V389.48ZM239.743 392.552C239.743 391.944 239.615 391.421 239.359 390.984C239.114 390.536 238.783 390.2 238.367 389.976C237.962 389.741 237.525 389.624 237.055 389.624C236.597 389.624 236.159 389.741 235.743 389.976C235.338 390.211 235.007 390.552 234.751 391C234.506 391.448 234.383 391.976 234.383 392.584C234.383 393.192 234.506 393.725 234.751 394.184C235.007 394.632 235.338 394.973 235.743 395.208C236.159 395.443 236.597 395.56 237.055 395.56C237.525 395.56 237.962 395.443 238.367 395.208C238.783 394.963 239.114 394.611 239.359 394.152C239.615 393.693 239.743 393.16 239.743 392.552ZM242.795 392.552C242.795 391.667 242.976 390.883 243.339 390.2C243.712 389.517 244.214 388.989 244.843 388.616C245.483 388.232 246.192 388.04 246.971 388.04C247.547 388.04 248.112 388.168 248.667 388.424C249.232 388.669 249.68 389 250.011 389.416V385.16H251.851V397H250.011V395.672C249.712 396.099 249.296 396.451 248.763 396.728C248.24 397.005 247.638 397.144 246.955 397.144C246.187 397.144 245.483 396.952 244.843 396.568C244.214 396.173 243.712 395.629 243.339 394.936C242.976 394.232 242.795 393.437 242.795 392.552ZM250.011 392.584C250.011 391.976 249.883 391.448 249.627 391C249.382 390.552 249.056 390.211 248.651 389.976C248.246 389.741 247.808 389.624 247.339 389.624C246.87 389.624 246.432 389.741 246.027 389.976C245.622 390.2 245.291 390.536 245.035 390.984C244.79 391.421 244.667 391.944 244.667 392.552C244.667 393.16 244.79 393.693 245.035 394.152C245.291 394.611 245.622 394.963 246.027 395.208C246.443 395.443 246.88 395.56 247.339 395.56C247.808 395.56 248.246 395.443 248.651 395.208C249.056 394.973 249.382 394.632 249.627 394.184C249.883 393.725 250.011 393.192 250.011 392.584ZM258.071 397.144C257.239 397.144 256.487 396.957 255.815 396.584C255.143 396.2 254.615 395.667 254.231 394.984C253.847 394.291 253.655 393.491 253.655 392.584C253.655 391.688 253.852 390.893 254.247 390.2C254.642 389.507 255.18 388.973 255.863 388.6C256.546 388.227 257.308 388.04 258.151 388.04C258.994 388.04 259.756 388.227 260.439 388.6C261.122 388.973 261.66 389.507 262.055 390.2C262.45 390.893 262.647 391.688 262.647 392.584C262.647 393.48 262.444 394.275 262.039 394.968C261.634 395.661 261.079 396.2 260.375 396.584C259.682 396.957 258.914 397.144 258.071 397.144ZM258.071 395.56C258.54 395.56 258.978 395.448 259.383 395.224C259.799 395 260.135 394.664 260.391 394.216C260.647 393.768 260.775 393.224 260.775 392.584C260.775 391.944 260.652 391.405 260.407 390.968C260.162 390.52 259.836 390.184 259.431 389.96C259.026 389.736 258.588 389.624 258.119 389.624C257.65 389.624 257.212 389.736 256.807 389.96C256.412 390.184 256.098 390.52 255.863 390.968C255.628 391.405 255.511 391.944 255.511 392.584C255.511 393.533 255.751 394.269 256.231 394.792C256.722 395.304 257.335 395.56 258.071 395.56ZM276.29 388.184L273.554 397H271.634L269.858 390.488L268.082 397H266.162L263.41 388.184H265.266L267.106 395.272L268.978 388.184H270.882L272.674 395.24L274.498 388.184H276.29ZM282.101 388.04C282.794 388.04 283.413 388.184 283.957 388.472C284.512 388.76 284.944 389.187 285.253 389.752C285.562 390.317 285.717 391 285.717 391.8V397H283.909V392.072C283.909 391.283 283.712 390.68 283.317 390.264C282.922 389.837 282.384 389.624 281.701 389.624C281.018 389.624 280.474 389.837 280.069 390.264C279.674 390.68 279.477 391.283 279.477 392.072V397H277.653V388.184H279.477V389.192C279.776 388.829 280.154 388.547 280.613 388.344C281.082 388.141 281.578 388.04 282.101 388.04ZM294.328 389.672V394.552C294.328 394.883 294.403 395.123 294.552 395.272C294.712 395.411 294.979 395.48 295.352 395.48H296.472V397H295.032C294.211 397 293.581 396.808 293.144 396.424C292.707 396.04 292.488 395.416 292.488 394.552V389.672H291.448V388.184H292.488V385.992H294.328V388.184H296.472V389.672H294.328ZM299.081 387.016C298.75 387.016 298.473 386.904 298.249 386.68C298.025 386.456 297.913 386.179 297.913 385.848C297.913 385.517 298.025 385.24 298.249 385.016C298.473 384.792 298.75 384.68 299.081 384.68C299.401 384.68 299.673 384.792 299.897 385.016C300.121 385.24 300.233 385.517 300.233 385.848C300.233 386.179 300.121 386.456 299.897 386.68C299.673 386.904 299.401 387.016 299.081 387.016ZM299.977 388.184V397H298.153V388.184H299.977ZM301.764 392.552C301.764 391.667 301.945 390.883 302.308 390.2C302.681 389.517 303.183 388.989 303.812 388.616C304.452 388.232 305.161 388.04 305.94 388.04C306.516 388.04 307.081 388.168 307.636 388.424C308.201 388.669 308.649 389 308.98 389.416V385.16H310.82V397H308.98V395.672C308.681 396.099 308.265 396.451 307.732 396.728C307.209 397.005 306.607 397.144 305.924 397.144C305.156 397.144 304.452 396.952 303.812 396.568C303.183 396.173 302.681 395.629 302.308 394.936C301.945 394.232 301.764 393.437 301.764 392.552ZM308.98 392.584C308.98 391.976 308.852 391.448 308.596 391C308.351 390.552 308.025 390.211 307.62 389.976C307.215 389.741 306.777 389.624 306.308 389.624C305.839 389.624 305.401 389.741 304.996 389.976C304.591 390.2 304.26 390.536 304.004 390.984C303.759 391.421 303.636 391.944 303.636 392.552C303.636 393.16 303.759 393.693 304.004 394.152C304.26 394.611 304.591 394.963 304.996 395.208C305.412 395.443 305.849 395.56 306.308 395.56C306.777 395.56 307.215 395.443 307.62 395.208C308.025 394.973 308.351 394.632 308.596 394.184C308.852 393.725 308.98 393.192 308.98 392.584ZM312.608 392.552C312.608 391.667 312.789 390.883 313.152 390.2C313.525 389.517 314.026 388.989 314.656 388.616C315.296 388.232 316 388.04 316.768 388.04C317.461 388.04 318.064 388.179 318.576 388.456C319.098 388.723 319.514 389.059 319.824 389.464V388.184H321.664V397H319.824V395.688C319.514 396.104 319.093 396.451 318.56 396.728C318.026 397.005 317.418 397.144 316.736 397.144C315.978 397.144 315.285 396.952 314.656 396.568C314.026 396.173 313.525 395.629 313.152 394.936C312.789 394.232 312.608 393.437 312.608 392.552ZM319.824 392.584C319.824 391.976 319.696 391.448 319.44 391C319.194 390.552 318.869 390.211 318.464 389.976C318.058 389.741 317.621 389.624 317.152 389.624C316.682 389.624 316.245 389.741 315.84 389.976C315.434 390.2 315.104 390.536 314.848 390.984C314.602 391.421 314.48 391.944 314.48 392.552C314.48 393.16 314.602 393.693 314.848 394.152C315.104 394.611 315.434 394.963 315.84 395.208C316.256 395.443 316.693 395.56 317.152 395.56C317.621 395.56 318.058 395.443 318.464 395.208C318.869 394.973 319.194 394.632 319.44 394.184C319.696 393.725 319.824 393.192 319.824 392.584ZM327.547 392.6L331.611 397H329.147L325.883 393.208V397H324.059V385.16H325.883V392.04L329.083 388.184H331.611L327.547 392.6ZM340.563 392.6L344.627 397H342.163L338.899 393.208V397H337.075V385.16H338.899V392.04L342.099 388.184H344.627L340.563 392.6ZM349.758 397.144C348.926 397.144 348.174 396.957 347.502 396.584C346.83 396.2 346.302 395.667 345.918 394.984C345.534 394.291 345.342 393.491 345.342 392.584C345.342 391.688 345.54 390.893 345.934 390.2C346.329 389.507 346.868 388.973 347.55 388.6C348.233 388.227 348.996 388.04 349.838 388.04C350.681 388.04 351.444 388.227 352.126 388.6C352.809 388.973 353.348 389.507 353.742 390.2C354.137 390.893 354.334 391.688 354.334 392.584C354.334 393.48 354.132 394.275 353.726 394.968C353.321 395.661 352.766 396.2 352.062 396.584C351.369 396.957 350.601 397.144 349.758 397.144ZM349.758 395.56C350.228 395.56 350.665 395.448 351.07 395.224C351.486 395 351.822 394.664 352.078 394.216C352.334 393.768 352.462 393.224 352.462 392.584C352.462 391.944 352.34 391.405 352.094 390.968C351.849 390.52 351.524 390.184 351.118 389.96C350.713 389.736 350.276 389.624 349.806 389.624C349.337 389.624 348.9 389.736 348.494 389.96C348.1 390.184 347.785 390.52 347.55 390.968C347.316 391.405 347.198 391.944 347.198 392.584C347.198 393.533 347.438 394.269 347.918 394.792C348.409 395.304 349.022 395.56 349.758 395.56ZM359.338 397.144C358.644 397.144 358.02 397.021 357.466 396.776C356.922 396.52 356.49 396.179 356.17 395.752C355.85 395.315 355.679 394.829 355.658 394.296H357.546C357.578 394.669 357.754 394.984 358.074 395.24C358.404 395.485 358.815 395.608 359.306 395.608C359.818 395.608 360.212 395.512 360.49 395.32C360.778 395.117 360.922 394.861 360.922 394.552C360.922 394.221 360.762 393.976 360.442 393.816C360.132 393.656 359.636 393.48 358.954 393.288C358.292 393.107 357.754 392.931 357.338 392.76C356.922 392.589 356.559 392.328 356.25 391.976C355.951 391.624 355.802 391.16 355.802 390.584C355.802 390.115 355.94 389.688 356.218 389.304C356.495 388.909 356.89 388.6 357.402 388.376C357.924 388.152 358.522 388.04 359.194 388.04C360.196 388.04 361.002 388.296 361.61 388.808C362.228 389.309 362.559 389.997 362.602 390.872H360.778C360.746 390.477 360.586 390.163 360.298 389.928C360.01 389.693 359.62 389.576 359.13 389.576C358.65 389.576 358.282 389.667 358.026 389.848C357.77 390.029 357.642 390.269 357.642 390.568C357.642 390.803 357.727 391 357.898 391.16C358.068 391.32 358.276 391.448 358.522 391.544C358.767 391.629 359.13 391.741 359.61 391.88C360.25 392.051 360.772 392.227 361.178 392.408C361.594 392.579 361.951 392.835 362.25 393.176C362.548 393.517 362.703 393.971 362.714 394.536C362.714 395.037 362.575 395.485 362.298 395.88C362.02 396.275 361.626 396.584 361.114 396.808C360.612 397.032 360.02 397.144 359.338 397.144ZM368.508 397.144C367.676 397.144 366.924 396.957 366.252 396.584C365.58 396.2 365.052 395.667 364.668 394.984C364.284 394.291 364.092 393.491 364.092 392.584C364.092 391.688 364.29 390.893 364.684 390.2C365.079 389.507 365.618 388.973 366.3 388.6C366.983 388.227 367.746 388.04 368.588 388.04C369.431 388.04 370.194 388.227 370.876 388.6C371.559 388.973 372.098 389.507 372.492 390.2C372.887 390.893 373.084 391.688 373.084 392.584C373.084 393.48 372.882 394.275 372.476 394.968C372.071 395.661 371.516 396.2 370.812 396.584C370.119 396.957 369.351 397.144 368.508 397.144ZM368.508 395.56C368.978 395.56 369.415 395.448 369.82 395.224C370.236 395 370.572 394.664 370.828 394.216C371.084 393.768 371.212 393.224 371.212 392.584C371.212 391.944 371.09 391.405 370.844 390.968C370.599 390.52 370.274 390.184 369.868 389.96C369.463 389.736 369.026 389.624 368.556 389.624C368.087 389.624 367.65 389.736 367.244 389.96C366.85 390.184 366.535 390.52 366.3 390.968C366.066 391.405 365.948 391.944 365.948 392.584C365.948 393.533 366.188 394.269 366.668 394.792C367.159 395.304 367.772 395.56 368.508 395.56ZM379.336 388.04C380.029 388.04 380.648 388.184 381.192 388.472C381.746 388.76 382.178 389.187 382.488 389.752C382.797 390.317 382.952 391 382.952 391.8V397H381.144V392.072C381.144 391.283 380.946 390.68 380.552 390.264C380.157 389.837 379.618 389.624 378.936 389.624C378.253 389.624 377.709 389.837 377.304 390.264C376.909 390.68 376.712 391.283 376.712 392.072V397H374.888V388.184H376.712V389.192C377.01 388.829 377.389 388.547 377.848 388.344C378.317 388.141 378.813 388.04 379.336 388.04ZM388.83 388.04C389.513 388.04 390.115 388.179 390.638 388.456C391.171 388.723 391.587 389.059 391.886 389.464V388.184H393.726V397.144C393.726 397.955 393.555 398.675 393.214 399.304C392.873 399.944 392.377 400.445 391.726 400.808C391.086 401.171 390.318 401.352 389.422 401.352C388.227 401.352 387.235 401.069 386.446 400.504C385.657 399.949 385.209 399.192 385.102 398.232H386.91C387.049 398.691 387.342 399.059 387.79 399.336C388.249 399.624 388.793 399.768 389.422 399.768C390.158 399.768 390.75 399.544 391.198 399.096C391.657 398.648 391.886 397.997 391.886 397.144V395.672C391.577 396.088 391.155 396.44 390.622 396.728C390.099 397.005 389.502 397.144 388.83 397.144C388.062 397.144 387.358 396.952 386.718 396.568C386.089 396.173 385.587 395.629 385.214 394.936C384.851 394.232 384.67 393.437 384.67 392.552C384.67 391.667 384.851 390.883 385.214 390.2C385.587 389.517 386.089 388.989 386.718 388.616C387.358 388.232 388.062 388.04 388.83 388.04ZM391.886 392.584C391.886 391.976 391.758 391.448 391.502 391C391.257 390.552 390.931 390.211 390.526 389.976C390.121 389.741 389.683 389.624 389.214 389.624C388.745 389.624 388.307 389.741 387.902 389.976C387.497 390.2 387.166 390.536 386.91 390.984C386.665 391.421 386.542 391.944 386.542 392.552C386.542 393.16 386.665 393.693 386.91 394.152C387.166 394.611 387.497 394.963 387.902 395.208C388.318 395.443 388.755 395.56 389.214 395.56C389.683 395.56 390.121 395.443 390.526 395.208C390.931 394.973 391.257 394.632 391.502 394.184C391.758 393.725 391.886 393.192 391.886 392.584Z" fill="#87B2FF"/>
</svg>
