<svg width="386" height="403" viewBox="0 0 386 403" fill="none" xmlns="http://www.w3.org/2000/svg">
<path d="M137.454 333.994H139.827V325.767C139.827 322.573 139.764 320.255 139.62 317.826L139.708 317.802C140.656 319.889 141.962 322.087 143.308 324.229L149.417 333.994H151.933V314.744H149.592V322.828C149.592 325.798 149.648 328.14 149.879 330.713L149.823 330.768C148.875 328.769 147.76 326.738 146.366 324.484L140.194 314.744H137.454V333.994Z" fill="#87B2FF"/>
<path d="M163.856 332.282C159.937 332.282 157.683 328.769 157.683 324.397C157.683 320.088 159.882 316.456 163.88 316.456C168.109 316.456 170.02 320.454 170.02 324.397C170.02 328.594 167.91 332.282 163.856 332.282ZM163.712 334.305C168.563 334.305 172.649 330.736 172.649 324.341C172.649 318.774 169.534 314.433 164.055 314.433C158.743 314.433 155.055 318.575 155.055 324.484C155.055 330.227 158.48 334.305 163.712 334.305Z" fill="#87B2FF"/>
<path d="M185.842 332.027V316.831C186.503 316.719 187.475 316.576 188.757 316.576C194.014 316.576 196.586 319.459 196.554 323.999C196.554 329.199 193.671 332.162 188.359 332.162C187.387 332.162 186.471 332.138 185.842 332.027ZM183.333 333.938C184.616 334.082 186.105 334.169 187.873 334.169C191.616 334.169 194.587 333.197 196.387 331.398C198.187 329.598 199.159 327.057 199.159 323.911C199.159 320.797 198.155 318.575 196.443 316.998C194.754 315.429 192.214 314.601 188.646 314.601C186.679 314.601 184.879 314.776 183.333 314.999V333.938Z" fill="#87B2FF"/>
<path d="M205.932 325.998L207.819 320.43C208.186 319.26 208.504 318.089 208.759 316.942H208.847C209.134 318.057 209.412 319.196 209.842 320.454L211.73 325.998H205.932ZM200.851 333.994H203.447L205.414 327.941H212.24L214.302 333.994H216.955L210.384 314.744H207.389L200.851 333.994Z" fill="#87B2FF"/>
<path d="M223.37 333.994H225.879V316.862H231.765V314.744H217.508V316.862H223.37V333.994Z" fill="#87B2FF"/>
<path d="M238.526 325.998L240.414 320.43C240.78 319.26 241.099 318.089 241.353 316.942H241.441C241.728 318.057 242.007 319.196 242.437 320.454L244.324 325.998H238.526ZM233.445 333.994H236.041L238.008 327.941H244.834L246.897 333.994H249.549L242.978 314.744H239.984L233.445 333.994Z" fill="#87B2FF"/>
<mask id="mask0_358_5294" style="mask-type:luminance" maskUnits="userSpaceOnUse" x="73" y="0" width="241" height="301">
<path d="M73 0H314V300.02H73V0Z" fill="white"/>
</mask>
<g mask="url(#mask0_358_5294)">
<path d="M250.061 35.0435C266.348 35.0435 279.571 48.267 279.571 64.5537V203.498C279.571 219.784 268.001 228.324 253.75 222.556C239.499 216.788 229.306 223.951 231.002 238.541C232.699 253.131 220.853 264.977 204.566 264.977H136.938C120.652 264.977 107.428 251.754 107.428 235.467V64.5537C107.428 48.267 120.652 35.0435 136.938 35.0435H250.061Z" stroke="#87B2FF" stroke-width="5.28"/>
<path d="M250.061 35.0435C266.348 35.0435 279.571 48.267 279.571 64.5537V203.498C279.571 219.784 268.001 228.324 253.75 222.556C239.499 216.788 229.306 223.951 231.002 238.541C232.699 253.131 220.853 264.977 204.566 264.977H136.938C120.652 264.977 107.428 251.754 107.428 235.467V64.5537C107.428 48.267 120.652 35.0435 136.938 35.0435H250.061Z" fill="#87B1FF" fill-opacity="0.2"/>
<path d="M250.061 35.0435C266.348 35.0435 279.571 48.267 279.571 64.5537V203.498C279.571 219.784 268.001 228.324 253.75 222.556C239.499 216.788 229.306 223.951 231.002 238.541C232.699 253.131 220.853 264.977 204.566 264.977H136.938C120.652 264.977 107.428 251.754 107.428 235.467V64.5537C107.428 48.267 120.652 35.0435 136.938 35.0435H250.061Z" stroke="#87B2FF" stroke-width="5.28"/>
<path d="M105.519 238.208C92.8298 234.905 83.4517 223.361 83.4517 209.645V38.7321C83.4517 22.4454 96.6752 9.22192 112.962 9.22192H226.084C240.732 9.22192 252.903 19.9181 255.204 33.9207" stroke="#87B2FF" stroke-width="5.28"/>
<path d="M279.571 205.034V214.487C279.571 219.704 275.222 227.322 269.866 231.488L236.712 257.274C231.356 261.441 221.497 264.823 214.71 264.823H196.267" stroke="#87B2FF" stroke-width="5.28"/>
<path d="M180.145 168.861C180.145 174.563 184.67 179.089 190.282 179.089C195.984 179.089 200.509 174.563 200.509 168.861C200.509 163.25 195.984 158.634 190.282 158.634C184.67 158.634 180.145 163.25 180.145 168.861ZM180.417 122.43C180.417 128.947 181.955 138.903 184.489 150.578C185.214 153.837 186.481 155.285 190.282 155.285C194.174 155.285 195.441 153.837 196.165 150.578C198.699 138.903 200.238 128.947 200.238 122.43C200.238 115.823 197.432 111.75 190.282 111.75C183.222 111.75 180.417 115.823 180.417 122.43Z" fill="#5C78AA"/>
</g>
<path d="M156.954 203.992C154.646 203.992 152.773 205.865 152.773 208.172C152.773 210.483 154.646 212.354 156.954 212.354C162.062 212.354 166.625 215.206 168.864 219.805C169.59 221.288 171.076 222.153 172.624 222.153C173.241 222.153 173.865 222.016 174.453 221.729C176.53 220.718 177.393 218.217 176.38 216.14C172.731 208.647 165.283 203.992 156.954 203.992Z" fill="#70D5FF" fill-opacity="0.5"/>
<path d="M201.93 261.414L187.998 247.48C192.123 241.679 194.573 234.607 194.573 226.961C194.573 207.365 178.63 191.422 159.033 191.422C139.436 191.422 123.495 207.365 123.495 226.961C123.495 246.556 139.436 262.499 159.033 262.499C167.22 262.499 174.745 259.691 180.761 255.023L194.539 268.802C195.559 269.822 196.899 270.334 198.235 270.334C199.573 270.334 200.91 269.824 201.93 268.802C203.972 266.764 203.972 263.455 201.93 261.414ZM131.859 226.963C131.859 211.977 144.052 199.786 159.036 199.786C174.02 199.786 186.213 211.977 186.213 226.963C186.213 233.197 184.082 238.932 180.536 243.523C179.365 245.039 178.047 246.438 176.586 247.677C171.846 251.698 165.725 254.139 159.036 254.139C144.05 254.138 131.859 241.947 131.859 226.963Z" fill="#70D5FF"/>
<path d="M159.127 198.278C175.102 198.278 188.073 211.249 188.073 227.224C188.073 243.199 175.102 256.17 159.127 256.17C143.151 256.17 130.181 243.199 130.181 227.224C130.181 211.249 143.151 198.278 159.127 198.278Z" fill="#70D5FF" fill-opacity="0.34"/>
<path d="M3.02363 361.88V368.968C3.02363 369.811 3.24229 370.445 3.67963 370.872C4.12763 371.299 4.74629 371.512 5.53563 371.512C6.33563 371.512 6.95429 371.299 7.39163 370.872C7.83963 370.445 8.06363 369.811 8.06363 368.968V361.88H9.88763V368.936C9.88763 369.843 9.69029 370.611 9.29563 371.24C8.90096 371.869 8.37296 372.339 7.71163 372.648C7.05029 372.957 6.31963 373.112 5.51963 373.112C4.71963 373.112 3.98896 372.957 3.32763 372.648C2.67696 372.339 2.15963 371.869 1.77563 371.24C1.39163 370.611 1.19963 369.843 1.19963 368.936V361.88H3.02363ZM16.7105 364.04C17.4038 364.04 18.0225 364.184 18.5665 364.472C19.1212 364.76 19.5532 365.187 19.8625 365.752C20.1718 366.317 20.3265 367 20.3265 367.8V373H18.5185V368.072C18.5185 367.283 18.3212 366.68 17.9265 366.264C17.5318 365.837 16.9932 365.624 16.3105 365.624C15.6278 365.624 15.0838 365.837 14.6785 366.264C14.2838 366.68 14.0865 367.283 14.0865 368.072V373H12.2625V364.184H14.0865V365.192C14.3852 364.829 14.7638 364.547 15.2225 364.344C15.6918 364.141 16.1878 364.04 16.7105 364.04ZM24.7811 365.672V370.552C24.7811 370.883 24.8558 371.123 25.0051 371.272C25.1651 371.411 25.4318 371.48 25.8051 371.48H26.9251V373H25.4851C24.6638 373 24.0345 372.808 23.5971 372.424C23.1598 372.04 22.9411 371.416 22.9411 370.552V365.672H21.9011V364.184H22.9411V361.992H24.7811V364.184H26.9251V365.672H24.7811ZM36.5903 364.184V373H34.7663V371.96C34.4783 372.323 34.0996 372.611 33.6303 372.824C33.1716 373.027 32.6809 373.128 32.1583 373.128C31.4649 373.128 30.8409 372.984 30.2863 372.696C29.7423 372.408 29.3103 371.981 28.9903 371.416C28.6809 370.851 28.5263 370.168 28.5263 369.368V364.184H30.3343V369.096C30.3343 369.885 30.5316 370.493 30.9263 370.92C31.3209 371.336 31.8596 371.544 32.5423 371.544C33.2249 371.544 33.7636 371.336 34.1583 370.92C34.5636 370.493 34.7663 369.885 34.7663 369.096V364.184H36.5903ZM42.4849 368.6L46.5489 373H44.0849L40.8209 369.208V373H38.9969V361.16H40.8209V368.04L44.0209 364.184H46.5489L42.4849 368.6ZM62.6845 364.04C63.3778 364.04 63.9965 364.184 64.5405 364.472C65.0952 364.76 65.5272 365.187 65.8365 365.752C66.1565 366.317 66.3165 367 66.3165 367.8V373H64.5085V368.072C64.5085 367.283 64.3112 366.68 63.9165 366.264C63.5218 365.837 62.9832 365.624 62.3005 365.624C61.6178 365.624 61.0738 365.837 60.6685 366.264C60.2738 366.68 60.0765 367.283 60.0765 368.072V373H58.2685V368.072C58.2685 367.283 58.0712 366.68 57.6765 366.264C57.2818 365.837 56.7432 365.624 56.0605 365.624C55.3778 365.624 54.8338 365.837 54.4285 366.264C54.0338 366.68 53.8365 367.283 53.8365 368.072V373H52.0125V364.184H53.8365V365.192C54.1352 364.829 54.5138 364.547 54.9725 364.344C55.4312 364.141 55.9218 364.04 56.4445 364.04C57.1485 364.04 57.7778 364.189 58.3325 364.488C58.8872 364.787 59.3138 365.219 59.6125 365.784C59.8792 365.251 60.2952 364.829 60.8605 364.52C61.4258 364.2 62.0338 364.04 62.6845 364.04ZM76.7175 368.376C76.7175 368.707 76.6962 369.005 76.6535 369.272H69.9175C69.9708 369.976 70.2322 370.541 70.7015 370.968C71.1708 371.395 71.7468 371.608 72.4295 371.608C73.4108 371.608 74.1042 371.197 74.5095 370.376H76.4775C76.2108 371.187 75.7255 371.853 75.0215 372.376C74.3282 372.888 73.4642 373.144 72.4295 373.144C71.5868 373.144 70.8295 372.957 70.1575 372.584C69.4962 372.2 68.9735 371.667 68.5895 370.984C68.2162 370.291 68.0295 369.491 68.0295 368.584C68.0295 367.677 68.2108 366.883 68.5735 366.2C68.9468 365.507 69.4642 364.973 70.1255 364.6C70.7975 364.227 71.5655 364.04 72.4295 364.04C73.2615 364.04 74.0028 364.221 74.6535 364.584C75.3042 364.947 75.8108 365.459 76.1735 366.12C76.5362 366.771 76.7175 367.523 76.7175 368.376ZM74.8135 367.8C74.8028 367.128 74.5628 366.589 74.0935 366.184C73.6242 365.779 73.0428 365.576 72.3495 365.576C71.7202 365.576 71.1815 365.779 70.7335 366.184C70.2855 366.579 70.0188 367.117 69.9335 367.8H74.8135ZM80.3365 361.16V373H78.5125V361.16H80.3365ZM83.6593 363.016C83.3286 363.016 83.0513 362.904 82.8273 362.68C82.6033 362.456 82.4913 362.179 82.4913 361.848C82.4913 361.517 82.6033 361.24 82.8273 361.016C83.0513 360.792 83.3286 360.68 83.6593 360.68C83.9793 360.68 84.2513 360.792 84.4753 361.016C84.6993 361.24 84.8113 361.517 84.8113 361.848C84.8113 362.179 84.6993 362.456 84.4753 362.68C84.2513 362.904 83.9793 363.016 83.6593 363.016ZM84.5553 364.184V373H82.7313V364.184H84.5553ZM91.51 364.04C92.182 364.04 92.7793 364.184 93.302 364.472C93.8353 364.76 94.2513 365.187 94.55 365.752C94.8593 366.317 95.014 367 95.014 367.8V373H93.206V368.072C93.206 367.283 93.0087 366.68 92.614 366.264C92.2193 365.837 91.6807 365.624 90.998 365.624C90.3153 365.624 89.7713 365.837 89.366 366.264C88.9713 366.68 88.774 367.283 88.774 368.072V373H86.95V361.16H88.774V365.208C89.0833 364.835 89.4727 364.547 89.942 364.344C90.422 364.141 90.9447 364.04 91.51 364.04ZM96.7326 368.552C96.7326 367.667 96.914 366.883 97.2766 366.2C97.65 365.517 98.1513 364.989 98.7806 364.616C99.4206 364.232 100.125 364.04 100.893 364.04C101.586 364.04 102.189 364.179 102.701 364.456C103.223 364.723 103.639 365.059 103.949 365.464V364.184H105.789V373H103.949V371.688C103.639 372.104 103.218 372.451 102.685 372.728C102.151 373.005 101.543 373.144 100.861 373.144C100.103 373.144 99.41 372.952 98.7806 372.568C98.1513 372.173 97.65 371.629 97.2766 370.936C96.914 370.232 96.7326 369.437 96.7326 368.552ZM103.949 368.584C103.949 367.976 103.821 367.448 103.565 367C103.319 366.552 102.994 366.211 102.589 365.976C102.183 365.741 101.746 365.624 101.277 365.624C100.807 365.624 100.37 365.741 99.9646 365.976C99.5593 366.2 99.2286 366.536 98.9726 366.984C98.7273 367.421 98.6046 367.944 98.6046 368.552C98.6046 369.16 98.7273 369.693 98.9726 370.152C99.2286 370.611 99.5593 370.963 99.9646 371.208C100.381 371.443 100.818 371.56 101.277 371.56C101.746 371.56 102.183 371.443 102.589 371.208C102.994 370.973 103.319 370.632 103.565 370.184C103.821 369.725 103.949 369.192 103.949 368.584ZM110.312 365.672V370.552C110.312 370.883 110.387 371.123 110.536 371.272C110.696 371.411 110.963 371.48 111.336 371.48H112.456V373H111.016C110.195 373 109.566 372.808 109.128 372.424C108.691 372.04 108.472 371.416 108.472 370.552V365.672H107.432V364.184H108.472V361.992H110.312V364.184H112.456V365.672H110.312ZM119.222 363.016C118.891 363.016 118.614 362.904 118.39 362.68C118.166 362.456 118.054 362.179 118.054 361.848C118.054 361.517 118.166 361.24 118.39 361.016C118.614 360.792 118.891 360.68 119.222 360.68C119.542 360.68 119.814 360.792 120.038 361.016C120.262 361.24 120.374 361.517 120.374 361.848C120.374 362.179 120.262 362.456 120.038 362.68C119.814 362.904 119.542 363.016 119.222 363.016ZM120.118 364.184V373H118.294V364.184H120.118ZM126.961 364.04C127.654 364.04 128.273 364.184 128.817 364.472C129.371 364.76 129.803 365.187 130.113 365.752C130.422 366.317 130.577 367 130.577 367.8V373H128.769V368.072C128.769 367.283 128.571 366.68 128.177 366.264C127.782 365.837 127.243 365.624 126.561 365.624C125.878 365.624 125.334 365.837 124.929 366.264C124.534 366.68 124.337 367.283 124.337 368.072V373H122.513V364.184H124.337V365.192C124.635 364.829 125.014 364.547 125.473 364.344C125.942 364.141 126.438 364.04 126.961 364.04ZM136.599 365.672H134.967V373H133.127V365.672H132.087V364.184H133.127V363.56C133.127 362.547 133.394 361.811 133.927 361.352C134.471 360.883 135.319 360.648 136.471 360.648V362.168C135.916 362.168 135.527 362.275 135.303 362.488C135.079 362.691 134.967 363.048 134.967 363.56V364.184H136.599V365.672ZM142.04 373.144C141.208 373.144 140.456 372.957 139.784 372.584C139.112 372.2 138.584 371.667 138.2 370.984C137.816 370.291 137.624 369.491 137.624 368.584C137.624 367.688 137.821 366.893 138.216 366.2C138.61 365.507 139.149 364.973 139.832 364.6C140.514 364.227 141.277 364.04 142.12 364.04C142.962 364.04 143.725 364.227 144.408 364.6C145.09 364.973 145.629 365.507 146.024 366.2C146.418 366.893 146.616 367.688 146.616 368.584C146.616 369.48 146.413 370.275 146.008 370.968C145.602 371.661 145.048 372.2 144.344 372.584C143.65 372.957 142.882 373.144 142.04 373.144ZM142.04 371.56C142.509 371.56 142.946 371.448 143.352 371.224C143.768 371 144.104 370.664 144.36 370.216C144.616 369.768 144.744 369.224 144.744 368.584C144.744 367.944 144.621 367.405 144.376 366.968C144.13 366.52 143.805 366.184 143.4 365.96C142.994 365.736 142.557 365.624 142.088 365.624C141.618 365.624 141.181 365.736 140.776 365.96C140.381 366.184 140.066 366.52 139.832 366.968C139.597 367.405 139.48 367.944 139.48 368.584C139.48 369.533 139.72 370.269 140.2 370.792C140.69 371.304 141.304 371.56 142.04 371.56ZM154.703 365.672V370.552C154.703 370.883 154.778 371.123 154.927 371.272C155.087 371.411 155.354 371.48 155.727 371.48H156.847V373H155.407C154.586 373 153.956 372.808 153.519 372.424C153.082 372.04 152.863 371.416 152.863 370.552V365.672H151.823V364.184H152.863V361.992H154.703V364.184H156.847V365.672H154.703ZM166.512 364.184V373H164.688V371.96C164.4 372.323 164.021 372.611 163.552 372.824C163.093 373.027 162.603 373.128 162.08 373.128C161.387 373.128 160.763 372.984 160.208 372.696C159.664 372.408 159.232 371.981 158.912 371.416C158.603 370.851 158.448 370.168 158.448 369.368V364.184H160.256V369.096C160.256 369.885 160.453 370.493 160.848 370.92C161.243 371.336 161.781 371.544 162.464 371.544C163.147 371.544 163.685 371.336 164.08 370.92C164.485 370.493 164.688 369.885 164.688 369.096V364.184H166.512ZM172.471 364.04C173.153 364.04 173.756 364.179 174.279 364.456C174.812 364.723 175.228 365.059 175.527 365.464V364.184H177.367V373.144C177.367 373.955 177.196 374.675 176.855 375.304C176.513 375.944 176.017 376.445 175.367 376.808C174.727 377.171 173.959 377.352 173.063 377.352C171.868 377.352 170.876 377.069 170.087 376.504C169.297 375.949 168.849 375.192 168.743 374.232H170.551C170.689 374.691 170.983 375.059 171.431 375.336C171.889 375.624 172.433 375.768 173.063 375.768C173.799 375.768 174.391 375.544 174.839 375.096C175.297 374.648 175.527 373.997 175.527 373.144V371.672C175.217 372.088 174.796 372.44 174.263 372.728C173.74 373.005 173.143 373.144 172.471 373.144C171.703 373.144 170.999 372.952 170.359 372.568C169.729 372.173 169.228 371.629 168.855 370.936C168.492 370.232 168.311 369.437 168.311 368.552C168.311 367.667 168.492 366.883 168.855 366.2C169.228 365.517 169.729 364.989 170.359 364.616C170.999 364.232 171.703 364.04 172.471 364.04ZM175.527 368.584C175.527 367.976 175.399 367.448 175.143 367C174.897 366.552 174.572 366.211 174.167 365.976C173.761 365.741 173.324 365.624 172.855 365.624C172.385 365.624 171.948 365.741 171.543 365.976C171.137 366.2 170.807 366.536 170.551 366.984C170.305 367.421 170.183 367.944 170.183 368.552C170.183 369.16 170.305 369.693 170.551 370.152C170.807 370.611 171.137 370.963 171.543 371.208C171.959 371.443 172.396 371.56 172.855 371.56C173.324 371.56 173.761 371.443 174.167 371.208C174.572 370.973 174.897 370.632 175.143 370.184C175.399 369.725 175.527 369.192 175.527 368.584ZM179.155 368.552C179.155 367.667 179.336 366.883 179.699 366.2C180.072 365.517 180.573 364.989 181.203 364.616C181.843 364.232 182.547 364.04 183.315 364.04C184.008 364.04 184.611 364.179 185.123 364.456C185.645 364.723 186.061 365.059 186.371 365.464V364.184H188.211V373H186.371V371.688C186.061 372.104 185.64 372.451 185.107 372.728C184.573 373.005 183.965 373.144 183.283 373.144C182.525 373.144 181.832 372.952 181.203 372.568C180.573 372.173 180.072 371.629 179.699 370.936C179.336 370.232 179.155 369.437 179.155 368.552ZM186.371 368.584C186.371 367.976 186.243 367.448 185.987 367C185.741 366.552 185.416 366.211 185.011 365.976C184.605 365.741 184.168 365.624 183.699 365.624C183.229 365.624 182.792 365.741 182.387 365.976C181.981 366.2 181.651 366.536 181.395 366.984C181.149 367.421 181.027 367.944 181.027 368.552C181.027 369.16 181.149 369.693 181.395 370.152C181.651 370.611 181.981 370.963 182.387 371.208C182.803 371.443 183.24 371.56 183.699 371.56C184.168 371.56 184.605 371.443 185.011 371.208C185.416 370.973 185.741 370.632 185.987 370.184C186.243 369.725 186.371 369.192 186.371 368.584ZM193.806 373.144C193.113 373.144 192.489 373.021 191.934 372.776C191.39 372.52 190.958 372.179 190.638 371.752C190.318 371.315 190.148 370.829 190.126 370.296H192.014C192.046 370.669 192.222 370.984 192.542 371.24C192.873 371.485 193.284 371.608 193.774 371.608C194.286 371.608 194.681 371.512 194.958 371.32C195.246 371.117 195.39 370.861 195.39 370.552C195.39 370.221 195.23 369.976 194.91 369.816C194.601 369.656 194.105 369.48 193.422 369.288C192.761 369.107 192.222 368.931 191.806 368.76C191.39 368.589 191.028 368.328 190.718 367.976C190.42 367.624 190.27 367.16 190.27 366.584C190.27 366.115 190.409 365.688 190.686 365.304C190.964 364.909 191.358 364.6 191.87 364.376C192.393 364.152 192.99 364.04 193.662 364.04C194.665 364.04 195.47 364.296 196.078 364.808C196.697 365.309 197.028 365.997 197.07 366.872H195.246C195.214 366.477 195.054 366.163 194.766 365.928C194.478 365.693 194.089 365.576 193.598 365.576C193.118 365.576 192.75 365.667 192.494 365.848C192.238 366.029 192.11 366.269 192.11 366.568C192.11 366.803 192.196 367 192.366 367.16C192.537 367.32 192.745 367.448 192.99 367.544C193.236 367.629 193.598 367.741 194.078 367.88C194.718 368.051 195.241 368.227 195.646 368.408C196.062 368.579 196.42 368.835 196.718 369.176C197.017 369.517 197.172 369.971 197.182 370.536C197.182 371.037 197.044 371.485 196.766 371.88C196.489 372.275 196.094 372.584 195.582 372.808C195.081 373.032 194.489 373.144 193.806 373.144ZM201.153 370.808L199.217 375.224H198.033L199.169 370.808H201.153ZM208.727 365.48C209.036 365.075 209.458 364.733 209.991 364.456C210.524 364.179 211.127 364.04 211.799 364.04C212.567 364.04 213.266 364.232 213.895 364.616C214.535 364.989 215.036 365.517 215.399 366.2C215.762 366.883 215.943 367.667 215.943 368.552C215.943 369.437 215.762 370.232 215.399 370.936C215.036 371.629 214.535 372.173 213.895 372.568C213.266 372.952 212.567 373.144 211.799 373.144C211.127 373.144 210.53 373.011 210.007 372.744C209.484 372.467 209.058 372.125 208.727 371.72V377.192H206.903V364.184H208.727V365.48ZM214.087 368.552C214.087 367.944 213.959 367.421 213.703 366.984C213.458 366.536 213.127 366.2 212.711 365.976C212.306 365.741 211.868 365.624 211.399 365.624C210.94 365.624 210.503 365.741 210.087 365.976C209.682 366.211 209.351 366.552 209.095 367C208.85 367.448 208.727 367.976 208.727 368.584C208.727 369.192 208.85 369.725 209.095 370.184C209.351 370.632 209.682 370.973 210.087 371.208C210.503 371.443 210.94 371.56 211.399 371.56C211.868 371.56 212.306 371.443 212.711 371.208C213.127 370.963 213.458 370.611 213.703 370.152C213.959 369.693 214.087 369.16 214.087 368.552ZM218.675 363.016C218.344 363.016 218.067 362.904 217.843 362.68C217.619 362.456 217.507 362.179 217.507 361.848C217.507 361.517 217.619 361.24 217.843 361.016C218.067 360.792 218.344 360.68 218.675 360.68C218.995 360.68 219.267 360.792 219.491 361.016C219.715 361.24 219.827 361.517 219.827 361.848C219.827 362.179 219.715 362.456 219.491 362.68C219.267 362.904 218.995 363.016 218.675 363.016ZM219.571 364.184V373H217.747V364.184H219.571ZM223.79 361.16V373H221.966V361.16H223.79ZM227.112 363.016C226.782 363.016 226.504 362.904 226.28 362.68C226.056 362.456 225.944 362.179 225.944 361.848C225.944 361.517 226.056 361.24 226.28 361.016C226.504 360.792 226.782 360.68 227.112 360.68C227.432 360.68 227.704 360.792 227.928 361.016C228.152 361.24 228.264 361.517 228.264 361.848C228.264 362.179 228.152 362.456 227.928 362.68C227.704 362.904 227.432 363.016 227.112 363.016ZM228.008 364.184V373H226.184V364.184H228.008ZM234.963 364.04C235.635 364.04 236.232 364.184 236.755 364.472C237.288 364.76 237.704 365.187 238.003 365.752C238.312 366.317 238.467 367 238.467 367.8V373H236.659V368.072C236.659 367.283 236.462 366.68 236.067 366.264C235.672 365.837 235.134 365.624 234.451 365.624C233.768 365.624 233.224 365.837 232.819 366.264C232.424 366.68 232.227 367.283 232.227 368.072V373H230.403V361.16H232.227V365.208C232.536 364.835 232.926 364.547 233.395 364.344C233.875 364.141 234.398 364.04 234.963 364.04ZM244.342 368.552C244.342 367.667 244.523 366.883 244.886 366.2C245.259 365.517 245.761 364.989 246.39 364.616C247.03 364.232 247.739 364.04 248.518 364.04C249.094 364.04 249.659 364.168 250.214 364.424C250.779 364.669 251.227 365 251.558 365.416V361.16H253.398V373H251.558V371.672C251.259 372.099 250.843 372.451 250.31 372.728C249.787 373.005 249.185 373.144 248.502 373.144C247.734 373.144 247.03 372.952 246.39 372.568C245.761 372.173 245.259 371.629 244.886 370.936C244.523 370.232 244.342 369.437 244.342 368.552ZM251.558 368.584C251.558 367.976 251.43 367.448 251.174 367C250.929 366.552 250.603 366.211 250.198 365.976C249.793 365.741 249.355 365.624 248.886 365.624C248.417 365.624 247.979 365.741 247.574 365.976C247.169 366.2 246.838 366.536 246.582 366.984C246.337 367.421 246.214 367.944 246.214 368.552C246.214 369.16 246.337 369.693 246.582 370.152C246.838 370.611 247.169 370.963 247.574 371.208C247.99 371.443 248.427 371.56 248.886 371.56C249.355 371.56 249.793 371.443 250.198 371.208C250.603 370.973 250.929 370.632 251.174 370.184C251.43 369.725 251.558 369.192 251.558 368.584ZM257.618 365.464C257.884 365.016 258.236 364.669 258.674 364.424C259.122 364.168 259.65 364.04 260.258 364.04V365.928H259.794C259.079 365.928 258.535 366.109 258.162 366.472C257.799 366.835 257.618 367.464 257.618 368.36V373H255.794V364.184H257.618V365.464ZM265.758 373.144C264.926 373.144 264.174 372.957 263.502 372.584C262.83 372.2 262.302 371.667 261.918 370.984C261.534 370.291 261.342 369.491 261.342 368.584C261.342 367.688 261.54 366.893 261.934 366.2C262.329 365.507 262.868 364.973 263.55 364.6C264.233 364.227 264.996 364.04 265.838 364.04C266.681 364.04 267.444 364.227 268.126 364.6C268.809 364.973 269.348 365.507 269.742 366.2C270.137 366.893 270.334 367.688 270.334 368.584C270.334 369.48 270.132 370.275 269.726 370.968C269.321 371.661 268.766 372.2 268.062 372.584C267.369 372.957 266.601 373.144 265.758 373.144ZM265.758 371.56C266.228 371.56 266.665 371.448 267.07 371.224C267.486 371 267.822 370.664 268.078 370.216C268.334 369.768 268.462 369.224 268.462 368.584C268.462 367.944 268.34 367.405 268.094 366.968C267.849 366.52 267.524 366.184 267.118 365.96C266.713 365.736 266.276 365.624 265.806 365.624C265.337 365.624 264.9 365.736 264.494 365.96C264.1 366.184 263.785 366.52 263.55 366.968C263.316 367.405 263.198 367.944 263.198 368.584C263.198 369.533 263.438 370.269 263.918 370.792C264.409 371.304 265.022 371.56 265.758 371.56ZM273.962 365.48C274.271 365.075 274.692 364.733 275.226 364.456C275.759 364.179 276.362 364.04 277.034 364.04C277.802 364.04 278.5 364.232 279.13 364.616C279.77 364.989 280.271 365.517 280.634 366.2C280.996 366.883 281.178 367.667 281.178 368.552C281.178 369.437 280.996 370.232 280.634 370.936C280.271 371.629 279.77 372.173 279.13 372.568C278.5 372.952 277.802 373.144 277.034 373.144C276.362 373.144 275.764 373.011 275.242 372.744C274.719 372.467 274.292 372.125 273.962 371.72V377.192H272.138V364.184H273.962V365.48ZM279.322 368.552C279.322 367.944 279.194 367.421 278.938 366.984C278.692 366.536 278.362 366.2 277.946 365.976C277.54 365.741 277.103 365.624 276.634 365.624C276.175 365.624 275.738 365.741 275.322 365.976C274.916 366.211 274.586 366.552 274.33 367C274.084 367.448 273.962 367.976 273.962 368.584C273.962 369.192 274.084 369.725 274.33 370.184C274.586 370.632 274.916 370.973 275.322 371.208C275.738 371.443 276.175 371.56 276.634 371.56C277.103 371.56 277.54 371.443 277.946 371.208C278.362 370.963 278.692 370.611 278.938 370.152C279.194 369.693 279.322 369.16 279.322 368.552ZM282.373 368.552C282.373 367.667 282.555 366.883 282.917 366.2C283.291 365.517 283.792 364.989 284.421 364.616C285.061 364.232 285.771 364.04 286.549 364.04C287.125 364.04 287.691 364.168 288.245 364.424C288.811 364.669 289.259 365 289.589 365.416V361.16H291.429V373H289.589V371.672C289.291 372.099 288.875 372.451 288.341 372.728C287.819 373.005 287.216 373.144 286.533 373.144C285.765 373.144 285.061 372.952 284.421 372.568C283.792 372.173 283.291 371.629 282.917 370.936C282.555 370.232 282.373 369.437 282.373 368.552ZM289.589 368.584C289.589 367.976 289.461 367.448 289.205 367C288.96 366.552 288.635 366.211 288.229 365.976C287.824 365.741 287.387 365.624 286.917 365.624C286.448 365.624 286.011 365.741 285.605 365.976C285.2 366.2 284.869 366.536 284.613 366.984C284.368 367.421 284.245 367.944 284.245 368.552C284.245 369.16 284.368 369.693 284.613 370.152C284.869 370.611 285.2 370.963 285.605 371.208C286.021 371.443 286.459 371.56 286.917 371.56C287.387 371.56 287.824 371.443 288.229 371.208C288.635 370.973 288.96 370.632 289.205 370.184C289.461 369.725 289.589 369.192 289.589 368.584ZM297.649 373.144C296.817 373.144 296.065 372.957 295.393 372.584C294.721 372.2 294.193 371.667 293.809 370.984C293.425 370.291 293.233 369.491 293.233 368.584C293.233 367.688 293.43 366.893 293.825 366.2C294.22 365.507 294.758 364.973 295.441 364.6C296.124 364.227 296.886 364.04 297.729 364.04C298.572 364.04 299.334 364.227 300.017 364.6C300.7 364.973 301.238 365.507 301.633 366.2C302.028 366.893 302.225 367.688 302.225 368.584C302.225 369.48 302.022 370.275 301.617 370.968C301.212 371.661 300.657 372.2 299.953 372.584C299.26 372.957 298.492 373.144 297.649 373.144ZM297.649 371.56C298.118 371.56 298.556 371.448 298.961 371.224C299.377 371 299.713 370.664 299.969 370.216C300.225 369.768 300.353 369.224 300.353 368.584C300.353 367.944 300.23 367.405 299.985 366.968C299.74 366.52 299.414 366.184 299.009 365.96C298.604 365.736 298.166 365.624 297.697 365.624C297.228 365.624 296.79 365.736 296.385 365.96C295.99 366.184 295.676 366.52 295.441 366.968C295.206 367.405 295.089 367.944 295.089 368.584C295.089 369.533 295.329 370.269 295.809 370.792C296.3 371.304 296.913 371.56 297.649 371.56ZM315.868 364.184L313.132 373H311.212L309.436 366.488L307.66 373H305.74L302.988 364.184H304.844L306.684 371.272L308.556 364.184H310.46L312.252 371.24L314.076 364.184H315.868ZM321.679 364.04C322.373 364.04 322.991 364.184 323.535 364.472C324.09 364.76 324.522 365.187 324.831 365.752C325.141 366.317 325.295 367 325.295 367.8V373H323.487V368.072C323.487 367.283 323.29 366.68 322.895 366.264C322.501 365.837 321.962 365.624 321.279 365.624C320.597 365.624 320.053 365.837 319.647 366.264C319.253 366.68 319.055 367.283 319.055 368.072V373H317.231V364.184H319.055V365.192C319.354 364.829 319.733 364.547 320.191 364.344C320.661 364.141 321.157 364.04 321.679 364.04ZM331.17 368.552C331.17 367.667 331.351 366.883 331.714 366.2C332.087 365.517 332.589 364.989 333.218 364.616C333.858 364.232 334.567 364.04 335.346 364.04C335.922 364.04 336.487 364.168 337.042 364.424C337.607 364.669 338.055 365 338.386 365.416V361.16H340.226V373H338.386V371.672C338.087 372.099 337.671 372.451 337.138 372.728C336.615 373.005 336.013 373.144 335.33 373.144C334.562 373.144 333.858 372.952 333.218 372.568C332.589 372.173 332.087 371.629 331.714 370.936C331.351 370.232 331.17 369.437 331.17 368.552ZM338.386 368.584C338.386 367.976 338.258 367.448 338.002 367C337.757 366.552 337.431 366.211 337.026 365.976C336.621 365.741 336.183 365.624 335.714 365.624C335.245 365.624 334.807 365.741 334.402 365.976C333.997 366.2 333.666 366.536 333.41 366.984C333.165 367.421 333.042 367.944 333.042 368.552C333.042 369.16 333.165 369.693 333.41 370.152C333.666 370.611 333.997 370.963 334.402 371.208C334.818 371.443 335.255 371.56 335.714 371.56C336.183 371.56 336.621 371.443 337.026 371.208C337.431 370.973 337.757 370.632 338.002 370.184C338.258 369.725 338.386 369.192 338.386 368.584ZM343.55 363.016C343.219 363.016 342.942 362.904 342.718 362.68C342.494 362.456 342.382 362.179 342.382 361.848C342.382 361.517 342.494 361.24 342.718 361.016C342.942 360.792 343.219 360.68 343.55 360.68C343.87 360.68 344.142 360.792 344.366 361.016C344.59 361.24 344.702 361.517 344.702 361.848C344.702 362.179 344.59 362.456 344.366 362.68C344.142 362.904 343.87 363.016 343.55 363.016ZM344.446 364.184V373H342.622V364.184H344.446ZM346.233 368.552C346.233 367.667 346.414 366.883 346.777 366.2C347.15 365.517 347.651 364.989 348.281 364.616C348.921 364.232 349.625 364.04 350.393 364.04C351.086 364.04 351.689 364.179 352.201 364.456C352.723 364.723 353.139 365.059 353.449 365.464V364.184H355.289V373H353.449V371.688C353.139 372.104 352.718 372.451 352.185 372.728C351.651 373.005 351.043 373.144 350.361 373.144C349.603 373.144 348.91 372.952 348.281 372.568C347.651 372.173 347.15 371.629 346.777 370.936C346.414 370.232 346.233 369.437 346.233 368.552ZM353.449 368.584C353.449 367.976 353.321 367.448 353.065 367C352.819 366.552 352.494 366.211 352.089 365.976C351.683 365.741 351.246 365.624 350.777 365.624C350.307 365.624 349.87 365.741 349.465 365.976C349.059 366.2 348.729 366.536 348.473 366.984C348.227 367.421 348.105 367.944 348.105 368.552C348.105 369.16 348.227 369.693 348.473 370.152C348.729 370.611 349.059 370.963 349.465 371.208C349.881 371.443 350.318 371.56 350.777 371.56C351.246 371.56 351.683 371.443 352.089 371.208C352.494 370.973 352.819 370.632 353.065 370.184C353.321 369.725 353.449 369.192 353.449 368.584ZM359.812 365.672V370.552C359.812 370.883 359.887 371.123 360.036 371.272C360.196 371.411 360.463 371.48 360.836 371.48H361.956V373H360.516C359.695 373 359.066 372.808 358.628 372.424C358.191 372.04 357.972 371.416 357.972 370.552V365.672H356.932V364.184H357.972V361.992H359.812V364.184H361.956V365.672H359.812ZM363.03 368.552C363.03 367.667 363.211 366.883 363.574 366.2C363.947 365.517 364.448 364.989 365.078 364.616C365.718 364.232 366.422 364.04 367.19 364.04C367.883 364.04 368.486 364.179 368.998 364.456C369.52 364.723 369.936 365.059 370.246 365.464V364.184H372.086V373H370.246V371.688C369.936 372.104 369.515 372.451 368.982 372.728C368.448 373.005 367.84 373.144 367.158 373.144C366.4 373.144 365.707 372.952 365.078 372.568C364.448 372.173 363.947 371.629 363.574 370.936C363.211 370.232 363.03 369.437 363.03 368.552ZM370.246 368.584C370.246 367.976 370.118 367.448 369.862 367C369.616 366.552 369.291 366.211 368.886 365.976C368.48 365.741 368.043 365.624 367.574 365.624C367.104 365.624 366.667 365.741 366.262 365.976C365.856 366.2 365.526 366.536 365.27 366.984C365.024 367.421 364.902 367.944 364.902 368.552C364.902 369.16 365.024 369.693 365.27 370.152C365.526 370.611 365.856 370.963 366.262 371.208C366.678 371.443 367.115 371.56 367.574 371.56C368.043 371.56 368.48 371.443 368.886 371.208C369.291 370.973 369.616 370.632 369.862 370.184C370.118 369.725 370.246 369.192 370.246 368.584ZM377.681 373.144C376.988 373.144 376.364 373.021 375.809 372.776C375.265 372.52 374.833 372.179 374.513 371.752C374.193 371.315 374.023 370.829 374.001 370.296H375.889C375.921 370.669 376.097 370.984 376.417 371.24C376.748 371.485 377.159 371.608 377.649 371.608C378.161 371.608 378.556 371.512 378.833 371.32C379.121 371.117 379.265 370.861 379.265 370.552C379.265 370.221 379.105 369.976 378.785 369.816C378.476 369.656 377.98 369.48 377.297 369.288C376.636 369.107 376.097 368.931 375.681 368.76C375.265 368.589 374.903 368.328 374.593 367.976C374.295 367.624 374.145 367.16 374.145 366.584C374.145 366.115 374.284 365.688 374.561 365.304C374.839 364.909 375.233 364.6 375.745 364.376C376.268 364.152 376.865 364.04 377.537 364.04C378.54 364.04 379.345 364.296 379.953 364.808C380.572 365.309 380.903 365.997 380.945 366.872H379.121C379.089 366.477 378.929 366.163 378.641 365.928C378.353 365.693 377.964 365.576 377.473 365.576C376.993 365.576 376.625 365.667 376.369 365.848C376.113 366.029 375.985 366.269 375.985 366.568C375.985 366.803 376.071 367 376.241 367.16C376.412 367.32 376.62 367.448 376.865 367.544C377.111 367.629 377.473 367.741 377.953 367.88C378.593 368.051 379.116 368.227 379.521 368.408C379.937 368.579 380.295 368.835 380.593 369.176C380.892 369.517 381.047 369.971 381.057 370.536C381.057 371.037 380.919 371.485 380.641 371.88C380.364 372.275 379.969 372.584 379.457 372.808C378.956 373.032 378.364 373.144 377.681 373.144ZM33.1021 389.48C33.4115 389.075 33.8328 388.733 34.3661 388.456C34.8995 388.179 35.5021 388.04 36.1741 388.04C36.9421 388.04 37.6408 388.232 38.2701 388.616C38.9101 388.989 39.4115 389.517 39.7741 390.2C40.1368 390.883 40.3181 391.667 40.3181 392.552C40.3181 393.437 40.1368 394.232 39.7741 394.936C39.4115 395.629 38.9101 396.173 38.2701 396.568C37.6408 396.952 36.9421 397.144 36.1741 397.144C35.5021 397.144 34.9048 397.011 34.3821 396.744C33.8595 396.467 33.4328 396.125 33.1021 395.72V401.192H31.2781V388.184H33.1021V389.48ZM38.4621 392.552C38.4621 391.944 38.3341 391.421 38.0781 390.984C37.8328 390.536 37.5021 390.2 37.0861 389.976C36.6808 389.741 36.2435 389.624 35.7741 389.624C35.3155 389.624 34.8781 389.741 34.4621 389.976C34.0568 390.211 33.7261 390.552 33.4701 391C33.2248 391.448 33.1021 391.976 33.1021 392.584C33.1021 393.192 33.2248 393.725 33.4701 394.184C33.7261 394.632 34.0568 394.973 34.4621 395.208C34.8781 395.443 35.3155 395.56 35.7741 395.56C36.2435 395.56 36.6808 395.443 37.0861 395.208C37.5021 394.963 37.8328 394.611 38.0781 394.152C38.3341 393.693 38.4621 393.16 38.4621 392.552ZM41.5139 392.552C41.5139 391.667 41.6952 390.883 42.0579 390.2C42.4312 389.517 42.9325 388.989 43.5619 388.616C44.2019 388.232 44.9059 388.04 45.6739 388.04C46.3672 388.04 46.9699 388.179 47.4819 388.456C48.0045 388.723 48.4205 389.059 48.7299 389.464V388.184H50.5699V397H48.7299V395.688C48.4205 396.104 47.9992 396.451 47.4659 396.728C46.9325 397.005 46.3245 397.144 45.6419 397.144C44.8845 397.144 44.1912 396.952 43.5619 396.568C42.9325 396.173 42.4312 395.629 42.0579 394.936C41.6952 394.232 41.5139 393.437 41.5139 392.552ZM48.7299 392.584C48.7299 391.976 48.6019 391.448 48.3459 391C48.1005 390.552 47.7752 390.211 47.3699 389.976C46.9645 389.741 46.5272 389.624 46.0579 389.624C45.5885 389.624 45.1512 389.741 44.7459 389.976C44.3405 390.2 44.0099 390.536 43.7539 390.984C43.5085 391.421 43.3859 391.944 43.3859 392.552C43.3859 393.16 43.5085 393.693 43.7539 394.152C44.0099 394.611 44.3405 394.963 44.7459 395.208C45.1619 395.443 45.5992 395.56 46.0579 395.56C46.5272 395.56 46.9645 395.443 47.3699 395.208C47.7752 394.973 48.1005 394.632 48.3459 394.184C48.6019 393.725 48.7299 393.192 48.7299 392.584ZM56.1656 397.144C55.4723 397.144 54.8483 397.021 54.2936 396.776C53.7496 396.52 53.3176 396.179 52.9976 395.752C52.6776 395.315 52.507 394.829 52.4856 394.296H54.3736C54.4056 394.669 54.5816 394.984 54.9016 395.24C55.2323 395.485 55.643 395.608 56.1336 395.608C56.6456 395.608 57.0403 395.512 57.3176 395.32C57.6056 395.117 57.7496 394.861 57.7496 394.552C57.7496 394.221 57.5896 393.976 57.2696 393.816C56.9603 393.656 56.4643 393.48 55.7816 393.288C55.1203 393.107 54.5816 392.931 54.1656 392.76C53.7496 392.589 53.387 392.328 53.0776 391.976C52.779 391.624 52.6296 391.16 52.6296 390.584C52.6296 390.115 52.7683 389.688 53.0456 389.304C53.323 388.909 53.7176 388.6 54.2296 388.376C54.7523 388.152 55.3496 388.04 56.0216 388.04C57.0243 388.04 57.8296 388.296 58.4376 388.808C59.0563 389.309 59.387 389.997 59.4296 390.872H57.6056C57.5736 390.477 57.4136 390.163 57.1256 389.928C56.8376 389.693 56.4483 389.576 55.9576 389.576C55.4776 389.576 55.1096 389.667 54.8536 389.848C54.5976 390.029 54.4696 390.269 54.4696 390.568C54.4696 390.803 54.555 391 54.7256 391.16C54.8963 391.32 55.1043 391.448 55.3496 391.544C55.595 391.629 55.9576 391.741 56.4376 391.88C57.0776 392.051 57.6003 392.227 58.0056 392.408C58.4216 392.579 58.779 392.835 59.0776 393.176C59.3763 393.517 59.531 393.971 59.5416 394.536C59.5416 395.037 59.403 395.485 59.1256 395.88C58.8483 396.275 58.4536 396.584 57.9416 396.808C57.4403 397.032 56.8483 397.144 56.1656 397.144ZM63.6405 389.672V394.552C63.6405 394.883 63.7152 395.123 63.8645 395.272C64.0245 395.411 64.2912 395.48 64.6645 395.48H65.7845V397H64.3445C63.5232 397 62.8938 396.808 62.4565 396.424C62.0192 396.04 61.8005 395.416 61.8005 394.552V389.672H60.7605V388.184H61.8005V385.992H63.6405V388.184H65.7845V389.672H63.6405ZM68.3936 387.016C68.063 387.016 67.7856 386.904 67.5616 386.68C67.3376 386.456 67.2256 386.179 67.2256 385.848C67.2256 385.517 67.3376 385.24 67.5616 385.016C67.7856 384.792 68.063 384.68 68.3936 384.68C68.7136 384.68 68.9856 384.792 69.2096 385.016C69.4336 385.24 69.5456 385.517 69.5456 385.848C69.5456 386.179 69.4336 386.456 69.2096 386.68C68.9856 386.904 68.7136 387.016 68.3936 387.016ZM69.2896 388.184V397H67.4656V388.184H69.2896ZM75.1724 392.6L79.2364 397H76.7724L73.5084 393.208V397H71.6844V385.16H73.5084V392.04L76.7084 388.184H79.2364L75.1724 392.6ZM79.9358 392.552C79.9358 391.667 80.1171 390.883 80.4798 390.2C80.8531 389.517 81.3544 388.989 81.9838 388.616C82.6238 388.232 83.3278 388.04 84.0958 388.04C84.7891 388.04 85.3918 388.179 85.9038 388.456C86.4264 388.723 86.8424 389.059 87.1518 389.464V388.184H88.9918V397H87.1518V395.688C86.8424 396.104 86.4211 396.451 85.8878 396.728C85.3544 397.005 84.7464 397.144 84.0638 397.144C83.3064 397.144 82.6131 396.952 81.9838 396.568C81.3544 396.173 80.8531 395.629 80.4798 394.936C80.1171 394.232 79.9358 393.437 79.9358 392.552ZM87.1518 392.584C87.1518 391.976 87.0238 391.448 86.7678 391C86.5224 390.552 86.1971 390.211 85.7918 389.976C85.3864 389.741 84.9491 389.624 84.4798 389.624C84.0104 389.624 83.5731 389.741 83.1678 389.976C82.7624 390.2 82.4318 390.536 82.1758 390.984C81.9304 391.421 81.8078 391.944 81.8078 392.552C81.8078 393.16 81.9304 393.693 82.1758 394.152C82.4318 394.611 82.7624 394.963 83.1678 395.208C83.5838 395.443 84.0211 395.56 84.4798 395.56C84.9491 395.56 85.3864 395.443 85.7918 395.208C86.1971 394.973 86.5224 394.632 86.7678 394.184C87.0238 393.725 87.1518 393.192 87.1518 392.584ZM95.8355 388.04C96.5288 388.04 97.1475 388.184 97.6915 388.472C98.2462 388.76 98.6782 389.187 98.9875 389.752C99.2968 390.317 99.4515 391 99.4515 391.8V397H97.6435V392.072C97.6435 391.283 97.4462 390.68 97.0515 390.264C96.6568 389.837 96.1182 389.624 95.4355 389.624C94.7528 389.624 94.2088 389.837 93.8035 390.264C93.4088 390.68 93.2115 391.283 93.2115 392.072V397H91.3875V388.184H93.2115V389.192C93.5102 388.829 93.8888 388.547 94.3475 388.344C94.8168 388.141 95.3128 388.04 95.8355 388.04ZM109.134 397.144C108.441 397.144 107.817 397.021 107.262 396.776C106.718 396.52 106.286 396.179 105.966 395.752C105.646 395.315 105.476 394.829 105.454 394.296H107.342C107.374 394.669 107.55 394.984 107.87 395.24C108.201 395.485 108.612 395.608 109.102 395.608C109.614 395.608 110.009 395.512 110.286 395.32C110.574 395.117 110.718 394.861 110.718 394.552C110.718 394.221 110.558 393.976 110.238 393.816C109.929 393.656 109.433 393.48 108.75 393.288C108.089 393.107 107.55 392.931 107.134 392.76C106.718 392.589 106.356 392.328 106.046 391.976C105.748 391.624 105.598 391.16 105.598 390.584C105.598 390.115 105.737 389.688 106.014 389.304C106.292 388.909 106.686 388.6 107.198 388.376C107.721 388.152 108.318 388.04 108.99 388.04C109.993 388.04 110.798 388.296 111.406 388.808C112.025 389.309 112.356 389.997 112.398 390.872H110.574C110.542 390.477 110.382 390.163 110.094 389.928C109.806 389.693 109.417 389.576 108.926 389.576C108.446 389.576 108.078 389.667 107.822 389.848C107.566 390.029 107.438 390.269 107.438 390.568C107.438 390.803 107.524 391 107.694 391.16C107.865 391.32 108.073 391.448 108.318 391.544C108.564 391.629 108.926 391.741 109.406 391.88C110.046 392.051 110.569 392.227 110.974 392.408C111.39 392.579 111.748 392.835 112.046 393.176C112.345 393.517 112.5 393.971 112.51 394.536C112.51 395.037 112.372 395.485 112.094 395.88C111.817 396.275 111.422 396.584 110.91 396.808C110.409 397.032 109.817 397.144 109.134 397.144ZM122.561 392.376C122.561 392.707 122.54 393.005 122.497 393.272H115.761C115.815 393.976 116.076 394.541 116.545 394.968C117.015 395.395 117.591 395.608 118.273 395.608C119.255 395.608 119.948 395.197 120.353 394.376H122.321C122.055 395.187 121.569 395.853 120.865 396.376C120.172 396.888 119.308 397.144 118.273 397.144C117.431 397.144 116.673 396.957 116.001 396.584C115.34 396.2 114.817 395.667 114.433 394.984C114.06 394.291 113.873 393.491 113.873 392.584C113.873 391.677 114.055 390.883 114.417 390.2C114.791 389.507 115.308 388.973 115.969 388.6C116.641 388.227 117.409 388.04 118.273 388.04C119.105 388.04 119.847 388.221 120.497 388.584C121.148 388.947 121.655 389.459 122.017 390.12C122.38 390.771 122.561 391.523 122.561 392.376ZM120.657 391.8C120.647 391.128 120.407 390.589 119.937 390.184C119.468 389.779 118.887 389.576 118.193 389.576C117.564 389.576 117.025 389.779 116.577 390.184C116.129 390.579 115.863 391.117 115.777 391.8H120.657ZM135.028 388.04C135.722 388.04 136.34 388.184 136.884 388.472C137.439 388.76 137.871 389.187 138.18 389.752C138.5 390.317 138.66 391 138.66 391.8V397H136.852V392.072C136.852 391.283 136.655 390.68 136.26 390.264C135.866 389.837 135.327 389.624 134.644 389.624C133.962 389.624 133.418 389.837 133.012 390.264C132.618 390.68 132.42 391.283 132.42 392.072V397H130.612V392.072C130.612 391.283 130.415 390.68 130.02 390.264C129.626 389.837 129.087 389.624 128.404 389.624C127.722 389.624 127.178 389.837 126.772 390.264C126.378 390.68 126.18 391.283 126.18 392.072V397H124.356V388.184H126.18V389.192C126.479 388.829 126.858 388.547 127.316 388.344C127.775 388.141 128.266 388.04 128.788 388.04C129.492 388.04 130.122 388.189 130.676 388.488C131.231 388.787 131.658 389.219 131.956 389.784C132.223 389.251 132.639 388.829 133.204 388.52C133.77 388.2 134.378 388.04 135.028 388.04ZM148.965 388.184V397H147.141V395.96C146.853 396.323 146.475 396.611 146.005 396.824C145.547 397.027 145.056 397.128 144.533 397.128C143.84 397.128 143.216 396.984 142.661 396.696C142.117 396.408 141.685 395.981 141.365 395.416C141.056 394.851 140.901 394.168 140.901 393.368V388.184H142.709V393.096C142.709 393.885 142.907 394.493 143.301 394.92C143.696 395.336 144.235 395.544 144.917 395.544C145.6 395.544 146.139 395.336 146.533 394.92C146.939 394.493 147.141 393.885 147.141 393.096V388.184H148.965ZM150.764 392.552C150.764 391.667 150.945 390.883 151.308 390.2C151.681 389.517 152.183 388.989 152.812 388.616C153.452 388.232 154.156 388.04 154.924 388.04C155.617 388.04 156.22 388.179 156.732 388.456C157.255 388.723 157.671 389.059 157.98 389.464V388.184H159.82V397H157.98V395.688C157.671 396.104 157.249 396.451 156.716 396.728C156.183 397.005 155.575 397.144 154.892 397.144C154.135 397.144 153.441 396.952 152.812 396.568C152.183 396.173 151.681 395.629 151.308 394.936C150.945 394.232 150.764 393.437 150.764 392.552ZM157.98 392.584C157.98 391.976 157.852 391.448 157.596 391C157.351 390.552 157.025 390.211 156.62 389.976C156.215 389.741 155.777 389.624 155.308 389.624C154.839 389.624 154.401 389.741 153.996 389.976C153.591 390.2 153.26 390.536 153.004 390.984C152.759 391.421 152.636 391.944 152.636 392.552C152.636 393.16 152.759 393.693 153.004 394.152C153.26 394.611 153.591 394.963 153.996 395.208C154.412 395.443 154.849 395.56 155.308 395.56C155.777 395.56 156.215 395.443 156.62 395.208C157.025 394.973 157.351 394.632 157.596 394.184C157.852 393.725 157.98 393.192 157.98 392.584ZM165.764 392.552C165.764 391.667 165.945 390.883 166.308 390.2C166.681 389.517 167.183 388.989 167.812 388.616C168.452 388.232 169.161 388.04 169.94 388.04C170.516 388.04 171.081 388.168 171.636 388.424C172.201 388.669 172.649 389 172.98 389.416V385.16H174.82V397H172.98V395.672C172.681 396.099 172.265 396.451 171.732 396.728C171.209 397.005 170.607 397.144 169.924 397.144C169.156 397.144 168.452 396.952 167.812 396.568C167.183 396.173 166.681 395.629 166.308 394.936C165.945 394.232 165.764 393.437 165.764 392.552ZM172.98 392.584C172.98 391.976 172.852 391.448 172.596 391C172.351 390.552 172.025 390.211 171.62 389.976C171.215 389.741 170.777 389.624 170.308 389.624C169.839 389.624 169.401 389.741 168.996 389.976C168.591 390.2 168.26 390.536 168.004 390.984C167.759 391.421 167.636 391.944 167.636 392.552C167.636 393.16 167.759 393.693 168.004 394.152C168.26 394.611 168.591 394.963 168.996 395.208C169.412 395.443 169.849 395.56 170.308 395.56C170.777 395.56 171.215 395.443 171.62 395.208C172.025 394.973 172.351 394.632 172.596 394.184C172.852 393.725 172.98 393.192 172.98 392.584ZM179.04 389.464C179.306 389.016 179.658 388.669 180.096 388.424C180.544 388.168 181.072 388.04 181.68 388.04V389.928H181.216C180.501 389.928 179.957 390.109 179.584 390.472C179.221 390.835 179.04 391.464 179.04 392.36V397H177.216V388.184H179.04V389.464ZM187.18 397.144C186.348 397.144 185.596 396.957 184.924 396.584C184.252 396.2 183.724 395.667 183.34 394.984C182.956 394.291 182.764 393.491 182.764 392.584C182.764 391.688 182.962 390.893 183.356 390.2C183.751 389.507 184.29 388.973 184.972 388.6C185.655 388.227 186.418 388.04 187.26 388.04C188.103 388.04 188.866 388.227 189.548 388.6C190.231 388.973 190.77 389.507 191.164 390.2C191.559 390.893 191.756 391.688 191.756 392.584C191.756 393.48 191.554 394.275 191.148 394.968C190.743 395.661 190.188 396.2 189.484 396.584C188.791 396.957 188.023 397.144 187.18 397.144ZM187.18 395.56C187.65 395.56 188.087 395.448 188.492 395.224C188.908 395 189.244 394.664 189.5 394.216C189.756 393.768 189.884 393.224 189.884 392.584C189.884 391.944 189.762 391.405 189.516 390.968C189.271 390.52 188.946 390.184 188.54 389.96C188.135 389.736 187.698 389.624 187.228 389.624C186.759 389.624 186.322 389.736 185.916 389.96C185.522 390.184 185.207 390.52 184.972 390.968C184.738 391.405 184.62 391.944 184.62 392.584C184.62 393.533 184.86 394.269 185.34 394.792C185.831 395.304 186.444 395.56 187.18 395.56ZM195.383 389.48C195.693 389.075 196.114 388.733 196.647 388.456C197.181 388.179 197.783 388.04 198.455 388.04C199.223 388.04 199.922 388.232 200.551 388.616C201.191 388.989 201.693 389.517 202.055 390.2C202.418 390.883 202.599 391.667 202.599 392.552C202.599 393.437 202.418 394.232 202.055 394.936C201.693 395.629 201.191 396.173 200.551 396.568C199.922 396.952 199.223 397.144 198.455 397.144C197.783 397.144 197.186 397.011 196.663 396.744C196.141 396.467 195.714 396.125 195.383 395.72V401.192H193.559V388.184H195.383V389.48ZM200.743 392.552C200.743 391.944 200.615 391.421 200.359 390.984C200.114 390.536 199.783 390.2 199.367 389.976C198.962 389.741 198.525 389.624 198.055 389.624C197.597 389.624 197.159 389.741 196.743 389.976C196.338 390.211 196.007 390.552 195.751 391C195.506 391.448 195.383 391.976 195.383 392.584C195.383 393.192 195.506 393.725 195.751 394.184C196.007 394.632 196.338 394.973 196.743 395.208C197.159 395.443 197.597 395.56 198.055 395.56C198.525 395.56 198.962 395.443 199.367 395.208C199.783 394.963 200.114 394.611 200.359 394.152C200.615 393.693 200.743 393.16 200.743 392.552ZM203.795 392.552C203.795 391.667 203.976 390.883 204.339 390.2C204.712 389.517 205.214 388.989 205.843 388.616C206.483 388.232 207.192 388.04 207.971 388.04C208.547 388.04 209.112 388.168 209.667 388.424C210.232 388.669 210.68 389 211.011 389.416V385.16H212.851V397H211.011V395.672C210.712 396.099 210.296 396.451 209.763 396.728C209.24 397.005 208.638 397.144 207.955 397.144C207.187 397.144 206.483 396.952 205.843 396.568C205.214 396.173 204.712 395.629 204.339 394.936C203.976 394.232 203.795 393.437 203.795 392.552ZM211.011 392.584C211.011 391.976 210.883 391.448 210.627 391C210.382 390.552 210.056 390.211 209.651 389.976C209.246 389.741 208.808 389.624 208.339 389.624C207.87 389.624 207.432 389.741 207.027 389.976C206.622 390.2 206.291 390.536 206.035 390.984C205.79 391.421 205.667 391.944 205.667 392.552C205.667 393.16 205.79 393.693 206.035 394.152C206.291 394.611 206.622 394.963 207.027 395.208C207.443 395.443 207.88 395.56 208.339 395.56C208.808 395.56 209.246 395.443 209.651 395.208C210.056 394.973 210.382 394.632 210.627 394.184C210.883 393.725 211.011 393.192 211.011 392.584ZM219.071 397.144C218.239 397.144 217.487 396.957 216.815 396.584C216.143 396.2 215.615 395.667 215.231 394.984C214.847 394.291 214.655 393.491 214.655 392.584C214.655 391.688 214.852 390.893 215.247 390.2C215.642 389.507 216.18 388.973 216.863 388.6C217.546 388.227 218.308 388.04 219.151 388.04C219.994 388.04 220.756 388.227 221.439 388.6C222.122 388.973 222.66 389.507 223.055 390.2C223.45 390.893 223.647 391.688 223.647 392.584C223.647 393.48 223.444 394.275 223.039 394.968C222.634 395.661 222.079 396.2 221.375 396.584C220.682 396.957 219.914 397.144 219.071 397.144ZM219.071 395.56C219.54 395.56 219.978 395.448 220.383 395.224C220.799 395 221.135 394.664 221.391 394.216C221.647 393.768 221.775 393.224 221.775 392.584C221.775 391.944 221.652 391.405 221.407 390.968C221.162 390.52 220.836 390.184 220.431 389.96C220.026 389.736 219.588 389.624 219.119 389.624C218.65 389.624 218.212 389.736 217.807 389.96C217.412 390.184 217.098 390.52 216.863 390.968C216.628 391.405 216.511 391.944 216.511 392.584C216.511 393.533 216.751 394.269 217.231 394.792C217.722 395.304 218.335 395.56 219.071 395.56ZM237.29 388.184L234.554 397H232.634L230.858 390.488L229.082 397H227.162L224.41 388.184H226.266L228.106 395.272L229.978 388.184H231.882L233.674 395.24L235.498 388.184H237.29ZM243.101 388.04C243.794 388.04 244.413 388.184 244.957 388.472C245.512 388.76 245.944 389.187 246.253 389.752C246.562 390.317 246.717 391 246.717 391.8V397H244.909V392.072C244.909 391.283 244.712 390.68 244.317 390.264C243.922 389.837 243.384 389.624 242.701 389.624C242.018 389.624 241.474 389.837 241.069 390.264C240.674 390.68 240.477 391.283 240.477 392.072V397H238.653V388.184H240.477V389.192C240.776 388.829 241.154 388.547 241.613 388.344C242.082 388.141 242.578 388.04 243.101 388.04ZM255.328 389.672V394.552C255.328 394.883 255.403 395.123 255.552 395.272C255.712 395.411 255.979 395.48 256.352 395.48H257.472V397H256.032C255.211 397 254.581 396.808 254.144 396.424C253.707 396.04 253.488 395.416 253.488 394.552V389.672H252.448V388.184H253.488V385.992H255.328V388.184H257.472V389.672H255.328ZM260.081 387.016C259.75 387.016 259.473 386.904 259.249 386.68C259.025 386.456 258.913 386.179 258.913 385.848C258.913 385.517 259.025 385.24 259.249 385.016C259.473 384.792 259.75 384.68 260.081 384.68C260.401 384.68 260.673 384.792 260.897 385.016C261.121 385.24 261.233 385.517 261.233 385.848C261.233 386.179 261.121 386.456 260.897 386.68C260.673 386.904 260.401 387.016 260.081 387.016ZM260.977 388.184V397H259.153V388.184H260.977ZM262.764 392.552C262.764 391.667 262.945 390.883 263.308 390.2C263.681 389.517 264.183 388.989 264.812 388.616C265.452 388.232 266.161 388.04 266.94 388.04C267.516 388.04 268.081 388.168 268.636 388.424C269.201 388.669 269.649 389 269.98 389.416V385.16H271.82V397H269.98V395.672C269.681 396.099 269.265 396.451 268.732 396.728C268.209 397.005 267.607 397.144 266.924 397.144C266.156 397.144 265.452 396.952 264.812 396.568C264.183 396.173 263.681 395.629 263.308 394.936C262.945 394.232 262.764 393.437 262.764 392.552ZM269.98 392.584C269.98 391.976 269.852 391.448 269.596 391C269.351 390.552 269.025 390.211 268.62 389.976C268.215 389.741 267.777 389.624 267.308 389.624C266.839 389.624 266.401 389.741 265.996 389.976C265.591 390.2 265.26 390.536 265.004 390.984C264.759 391.421 264.636 391.944 264.636 392.552C264.636 393.16 264.759 393.693 265.004 394.152C265.26 394.611 265.591 394.963 265.996 395.208C266.412 395.443 266.849 395.56 267.308 395.56C267.777 395.56 268.215 395.443 268.62 395.208C269.025 394.973 269.351 394.632 269.596 394.184C269.852 393.725 269.98 393.192 269.98 392.584ZM273.608 392.552C273.608 391.667 273.789 390.883 274.152 390.2C274.525 389.517 275.026 388.989 275.656 388.616C276.296 388.232 277 388.04 277.768 388.04C278.461 388.04 279.064 388.179 279.576 388.456C280.098 388.723 280.514 389.059 280.824 389.464V388.184H282.664V397H280.824V395.688C280.514 396.104 280.093 396.451 279.56 396.728C279.026 397.005 278.418 397.144 277.736 397.144C276.978 397.144 276.285 396.952 275.656 396.568C275.026 396.173 274.525 395.629 274.152 394.936C273.789 394.232 273.608 393.437 273.608 392.552ZM280.824 392.584C280.824 391.976 280.696 391.448 280.44 391C280.194 390.552 279.869 390.211 279.464 389.976C279.058 389.741 278.621 389.624 278.152 389.624C277.682 389.624 277.245 389.741 276.84 389.976C276.434 390.2 276.104 390.536 275.848 390.984C275.602 391.421 275.48 391.944 275.48 392.552C275.48 393.16 275.602 393.693 275.848 394.152C276.104 394.611 276.434 394.963 276.84 395.208C277.256 395.443 277.693 395.56 278.152 395.56C278.621 395.56 279.058 395.443 279.464 395.208C279.869 394.973 280.194 394.632 280.44 394.184C280.696 393.725 280.824 393.192 280.824 392.584ZM288.547 392.6L292.611 397H290.147L286.883 393.208V397H285.059V385.16H286.883V392.04L290.083 388.184H292.611L288.547 392.6ZM301.563 392.6L305.627 397H303.163L299.899 393.208V397H298.075V385.16H299.899V392.04L303.099 388.184H305.627L301.563 392.6ZM310.758 397.144C309.926 397.144 309.174 396.957 308.502 396.584C307.83 396.2 307.302 395.667 306.918 394.984C306.534 394.291 306.342 393.491 306.342 392.584C306.342 391.688 306.54 390.893 306.934 390.2C307.329 389.507 307.868 388.973 308.55 388.6C309.233 388.227 309.996 388.04 310.838 388.04C311.681 388.04 312.444 388.227 313.126 388.6C313.809 388.973 314.348 389.507 314.742 390.2C315.137 390.893 315.334 391.688 315.334 392.584C315.334 393.48 315.132 394.275 314.726 394.968C314.321 395.661 313.766 396.2 313.062 396.584C312.369 396.957 311.601 397.144 310.758 397.144ZM310.758 395.56C311.228 395.56 311.665 395.448 312.07 395.224C312.486 395 312.822 394.664 313.078 394.216C313.334 393.768 313.462 393.224 313.462 392.584C313.462 391.944 313.34 391.405 313.094 390.968C312.849 390.52 312.524 390.184 312.118 389.96C311.713 389.736 311.276 389.624 310.806 389.624C310.337 389.624 309.9 389.736 309.494 389.96C309.1 390.184 308.785 390.52 308.55 390.968C308.316 391.405 308.198 391.944 308.198 392.584C308.198 393.533 308.438 394.269 308.918 394.792C309.409 395.304 310.022 395.56 310.758 395.56ZM320.338 397.144C319.644 397.144 319.02 397.021 318.466 396.776C317.922 396.52 317.49 396.179 317.17 395.752C316.85 395.315 316.679 394.829 316.658 394.296H318.546C318.578 394.669 318.754 394.984 319.074 395.24C319.404 395.485 319.815 395.608 320.306 395.608C320.818 395.608 321.212 395.512 321.49 395.32C321.778 395.117 321.922 394.861 321.922 394.552C321.922 394.221 321.762 393.976 321.442 393.816C321.132 393.656 320.636 393.48 319.954 393.288C319.292 393.107 318.754 392.931 318.338 392.76C317.922 392.589 317.559 392.328 317.25 391.976C316.951 391.624 316.802 391.16 316.802 390.584C316.802 390.115 316.94 389.688 317.218 389.304C317.495 388.909 317.89 388.6 318.402 388.376C318.924 388.152 319.522 388.04 320.194 388.04C321.196 388.04 322.002 388.296 322.61 388.808C323.228 389.309 323.559 389.997 323.602 390.872H321.778C321.746 390.477 321.586 390.163 321.298 389.928C321.01 389.693 320.62 389.576 320.13 389.576C319.65 389.576 319.282 389.667 319.026 389.848C318.77 390.029 318.642 390.269 318.642 390.568C318.642 390.803 318.727 391 318.898 391.16C319.068 391.32 319.276 391.448 319.522 391.544C319.767 391.629 320.13 391.741 320.61 391.88C321.25 392.051 321.772 392.227 322.178 392.408C322.594 392.579 322.951 392.835 323.25 393.176C323.548 393.517 323.703 393.971 323.714 394.536C323.714 395.037 323.575 395.485 323.298 395.88C323.02 396.275 322.626 396.584 322.114 396.808C321.612 397.032 321.02 397.144 320.338 397.144ZM329.508 397.144C328.676 397.144 327.924 396.957 327.252 396.584C326.58 396.2 326.052 395.667 325.668 394.984C325.284 394.291 325.092 393.491 325.092 392.584C325.092 391.688 325.29 390.893 325.684 390.2C326.079 389.507 326.618 388.973 327.3 388.6C327.983 388.227 328.746 388.04 329.588 388.04C330.431 388.04 331.194 388.227 331.876 388.6C332.559 388.973 333.098 389.507 333.492 390.2C333.887 390.893 334.084 391.688 334.084 392.584C334.084 393.48 333.882 394.275 333.476 394.968C333.071 395.661 332.516 396.2 331.812 396.584C331.119 396.957 330.351 397.144 329.508 397.144ZM329.508 395.56C329.978 395.56 330.415 395.448 330.82 395.224C331.236 395 331.572 394.664 331.828 394.216C332.084 393.768 332.212 393.224 332.212 392.584C332.212 391.944 332.09 391.405 331.844 390.968C331.599 390.52 331.274 390.184 330.868 389.96C330.463 389.736 330.026 389.624 329.556 389.624C329.087 389.624 328.65 389.736 328.244 389.96C327.85 390.184 327.535 390.52 327.3 390.968C327.066 391.405 326.948 391.944 326.948 392.584C326.948 393.533 327.188 394.269 327.668 394.792C328.159 395.304 328.772 395.56 329.508 395.56ZM340.336 388.04C341.029 388.04 341.648 388.184 342.192 388.472C342.746 388.76 343.178 389.187 343.488 389.752C343.797 390.317 343.952 391 343.952 391.8V397H342.144V392.072C342.144 391.283 341.946 390.68 341.552 390.264C341.157 389.837 340.618 389.624 339.936 389.624C339.253 389.624 338.709 389.837 338.304 390.264C337.909 390.68 337.712 391.283 337.712 392.072V397H335.888V388.184H337.712V389.192C338.01 388.829 338.389 388.547 338.848 388.344C339.317 388.141 339.813 388.04 340.336 388.04ZM349.83 388.04C350.513 388.04 351.115 388.179 351.638 388.456C352.171 388.723 352.587 389.059 352.886 389.464V388.184H354.726V397.144C354.726 397.955 354.555 398.675 354.214 399.304C353.873 399.944 353.377 400.445 352.726 400.808C352.086 401.171 351.318 401.352 350.422 401.352C349.227 401.352 348.235 401.069 347.446 400.504C346.657 399.949 346.209 399.192 346.102 398.232H347.91C348.049 398.691 348.342 399.059 348.79 399.336C349.249 399.624 349.793 399.768 350.422 399.768C351.158 399.768 351.75 399.544 352.198 399.096C352.657 398.648 352.886 397.997 352.886 397.144V395.672C352.577 396.088 352.155 396.44 351.622 396.728C351.099 397.005 350.502 397.144 349.83 397.144C349.062 397.144 348.358 396.952 347.718 396.568C347.089 396.173 346.587 395.629 346.214 394.936C345.851 394.232 345.67 393.437 345.67 392.552C345.67 391.667 345.851 390.883 346.214 390.2C346.587 389.517 347.089 388.989 347.718 388.616C348.358 388.232 349.062 388.04 349.83 388.04ZM352.886 392.584C352.886 391.976 352.758 391.448 352.502 391C352.257 390.552 351.931 390.211 351.526 389.976C351.121 389.741 350.683 389.624 350.214 389.624C349.745 389.624 349.307 389.741 348.902 389.976C348.497 390.2 348.166 390.536 347.91 390.984C347.665 391.421 347.542 391.944 347.542 392.552C347.542 393.16 347.665 393.693 347.91 394.152C348.166 394.611 348.497 394.963 348.902 395.208C349.318 395.443 349.755 395.56 350.214 395.56C350.683 395.56 351.121 395.443 351.526 395.208C351.931 394.973 352.257 394.632 352.502 394.184C352.758 393.725 352.886 393.192 352.886 392.584Z" fill="#87B2FF"/>
</svg>
