<svg width="16" height="20" viewBox="0 0 16 20" fill="none" xmlns="http://www.w3.org/2000/svg">
<path d="M15.4 2H11.22V1.5C11.22 1.10218 11.062 0.720644 10.7807 0.43934C10.4994 0.158035 10.1178 0 9.72 0H6.18C5.78217 0 5.40064 0.158035 5.11934 0.43934C4.83804 0.720644 4.68 1.10218 4.68 1.5V2H0.5C0.367392 2 0.240214 2.05268 0.146446 2.14645C0.052678 2.24021 0 2.36739 0 2.5C0 2.63261 0.052678 2.75979 0.146446 2.85355C0.240214 2.94732 0.367392 3 0.5 3H1.22L1.64 17.45C1.65646 18.1014 1.92733 18.7205 2.39459 19.1747C2.86186 19.6289 3.48838 19.882 4.14 19.88H11.76C12.4116 19.882 13.0381 19.6289 13.5054 19.1747C13.9727 18.7205 14.2435 18.1014 14.26 17.45L14.68 3H15.4C15.5326 3 15.6598 2.94732 15.7536 2.85355C15.8473 2.75979 15.9 2.63261 15.9 2.5C15.9 2.36739 15.8473 2.24021 15.7536 2.14645C15.6598 2.05268 15.5326 2 15.4 2ZM5.68 1.5C5.68 1.36739 5.73268 1.24021 5.82645 1.14645C5.92021 1.05268 6.04739 1 6.18 1H9.72C9.85261 1 9.97978 1.05268 10.0736 1.14645C10.1673 1.24021 10.22 1.36739 10.22 1.5V2H5.68V1.5ZM13.26 17.42C13.2496 17.8109 13.0869 18.1822 12.8068 18.4549C12.5266 18.7276 12.151 18.8801 11.76 18.88H4.14C3.74901 18.8801 3.37342 18.7276 3.09324 18.4549C2.81305 18.1822 2.65043 17.8109 2.64 17.42L2.21 3H13.69L13.26 17.42Z" fill="#FF0000"/>
<path d="M4.3252 5.93994C4.3252 5.80733 4.37787 5.68016 4.47164 5.58639C4.56541 5.49262 4.69259 5.43994 4.8252 5.43994C4.9578 5.43994 5.08498 5.49262 5.17875 5.58639C5.27252 5.68016 5.3252 5.80733 5.3252 5.93994L5.5752 15.9399C5.5752 16.0725 5.52252 16.1997 5.42875 16.2935C5.33498 16.3873 5.2078 16.4399 5.0752 16.4399C4.94259 16.4399 4.81541 16.3873 4.72164 16.2935C4.62787 16.1997 4.5752 16.0725 4.5752 15.9399L4.3252 5.93994ZM11.5752 5.94694C11.5752 5.81433 11.5225 5.68716 11.4287 5.59339C11.335 5.49962 11.2078 5.44694 11.0752 5.44694C10.9426 5.44694 10.8154 5.49962 10.7216 5.59339C10.6279 5.68716 10.5752 5.81433 10.5752 5.94694L10.3252 15.9469C10.3252 16.0795 10.3779 16.2067 10.4716 16.3005C10.5654 16.3943 10.6926 16.4469 10.8252 16.4469C10.9578 16.4469 11.085 16.3943 11.1787 16.3005C11.2725 16.2067 11.3252 16.0795 11.3252 15.9469L11.5752 5.94694Z" fill="#FF0000"/>
</svg>
