<svg width="54" height="53" viewBox="0 0 54 53" fill="none" xmlns="http://www.w3.org/2000/svg">
<g id="Group 53">
<ellipse id="Ellipse 4" cx="26.6732" cy="26.5" rx="26.6732" ry="26.5" fill="white"/>
<ellipse id="Ellipse 5" cx="26.6732" cy="26.5" rx="19.7382" ry="19.61" fill="#3182FB"/>
<g id="Group 52">
<path id="Rectangle 30" d="M19.4739 15.9194L37.2778 18.6828L29.5 22.5L7.32458 25.7408L19.4739 15.9194Z" fill="white"/>
<path id="Rectangle 31" d="M9.21143 25.0193L9.91867 24.9308L12.5944 35.1911L10.7985 35.4159L9.21143 25.0193Z" fill="white"/>
<path id="Ellipse 3" d="M30.8791 27.3149C31.9747 31.516 33.5038 34.0196 28.2734 35.252C23.043 36.4845 17.9148 34.0779 16.8192 29.8768C15.7236 25.6757 19.0755 21.2709 24.3059 20.0385C29.5364 18.806 29.7835 23.1138 30.8791 27.3149Z" fill="white"/>
<path id="Rectangle 32" d="M28.939 28.0051L47.0779 20.463L47.0137 35.3118L28.9877 32.3852L28.939 28.0051Z" fill="white"/>
</g>
</g>
</svg>
