<svg width="33" height="32" viewBox="0 0 33 32" fill="none" xmlns="http://www.w3.org/2000/svg">
<g id="iconamoon:home">
<path id="Vector" d="M27.5 13.3334C27.5 12.9798 27.3551 12.6406 27.0973 12.3906C26.8394 12.1405 26.4897 12 26.125 12C25.7603 12 25.4106 12.1405 25.1527 12.3906C24.8949 12.6406 24.75 12.9798 24.75 13.3334H27.5ZM8.24999 13.3334C8.24999 12.9798 8.10512 12.6406 7.84726 12.3906C7.5894 12.1405 7.23966 12 6.87499 12C6.51032 12 6.16058 12.1405 5.90272 12.3906C5.64486 12.6406 5.49999 12.9798 5.49999 13.3334H8.24999ZM27.9029 16.9427C28.1622 17.1856 28.5095 17.32 28.87 17.3169C29.2306 17.3139 29.5754 17.1737 29.8304 16.9265C30.0853 16.6793 30.2299 16.3448 30.233 15.9952C30.2362 15.6456 30.0976 15.3088 29.8471 15.0574L27.9029 16.9427ZM16.5 4.00004L17.4721 3.05737C17.2143 2.80741 16.8646 2.66699 16.5 2.66699C16.1354 2.66699 15.7857 2.80741 15.5279 3.05737L16.5 4.00004ZM3.15286 15.0574C3.02154 15.1804 2.91679 15.3275 2.84473 15.4902C2.77266 15.6528 2.73473 15.8278 2.73315 16.0048C2.73156 16.1819 2.76635 16.3575 2.83548 16.5213C2.90462 16.6852 3.00672 16.834 3.13582 16.9592C3.26492 17.0844 3.41845 17.1834 3.58743 17.2505C3.75641 17.3175 3.93747 17.3512 4.12004 17.3497C4.30261 17.3482 4.48304 17.3114 4.6508 17.2415C4.81855 17.1716 4.97028 17.0701 5.09711 16.9427L3.15286 15.0574ZM9.62499 29.3334H23.375V26.6667H9.62499V29.3334ZM27.5 25.3334V13.3334H24.75V25.3334H27.5ZM8.24999 25.3334V13.3334H5.49999V25.3334H8.24999ZM29.8471 15.0574L17.4721 3.05737L15.5279 4.94271L27.9029 16.9427L29.8471 15.0574ZM15.5279 3.05737L3.15286 15.0574L5.09711 16.9427L17.4721 4.94271L15.5279 3.05737ZM23.375 29.3334C24.469 29.3334 25.5182 28.9119 26.2918 28.1618C27.0654 27.4117 27.5 26.3942 27.5 25.3334H24.75C24.75 25.687 24.6051 26.0261 24.3473 26.2762C24.0894 26.5262 23.7397 26.6667 23.375 26.6667V29.3334ZM9.62499 26.6667C9.26032 26.6667 8.91058 26.5262 8.65272 26.2762C8.39486 26.0261 8.24999 25.687 8.24999 25.3334H5.49999C5.49999 26.3942 5.93459 27.4117 6.70817 28.1618C7.48176 28.9119 8.53097 29.3334 9.62499 29.3334V26.6667Z" fill="white"/>
</g>
</svg>
