<svg width="26" height="26" viewBox="0 0 26 26" fill="none" xmlns="http://www.w3.org/2000/svg">
<path id="Vector" d="M11.7 19.5H14.3V11.7H11.7V19.5ZM13 9.1C13.3683 9.1 13.6773 8.9752 13.9269 8.7256C14.1765 8.476 14.3009 8.16747 14.3 7.8C14.3 7.43167 14.1752 7.1227 13.9256 6.8731C13.676 6.6235 13.3675 6.49913 13 6.5C12.6317 6.5 12.3227 6.6248 12.0731 6.8744C11.8235 7.124 11.6991 7.43253 11.7 7.8C11.7 8.16833 11.8248 8.4773 12.0744 8.7269C12.324 8.9765 12.6325 9.10087 13 9.1ZM13 26C11.2017 26 9.51167 25.6585 7.93 24.9756C6.34833 24.2927 4.9725 23.3666 3.8025 22.1975C2.6325 21.0275 1.70647 19.6517 1.0244 18.07C0.342333 16.4883 0.000866667 14.7983 0 13C0 11.2017 0.341467 9.51167 1.0244 7.93C1.70733 6.34833 2.63337 4.9725 3.8025 3.8025C4.9725 2.6325 6.34833 1.70647 7.93 1.0244C9.51167 0.342333 11.2017 0.000866667 13 0C14.7983 0 16.4883 0.341467 18.07 1.0244C19.6517 1.70733 21.0275 2.63337 22.1975 3.8025C23.3675 4.9725 24.294 6.34833 24.9769 7.93C25.6598 9.51167 26.0009 11.2017 26 13C26 14.7983 25.6585 16.4883 24.9756 18.07C24.2927 19.6517 23.3666 21.0275 22.1975 22.1975C21.0275 23.3675 19.6517 24.294 18.07 24.9769C16.4883 25.6598 14.7983 26.0009 13 26ZM13 23.4C15.9033 23.4 18.3625 22.3925 20.3775 20.3775C22.3925 18.3625 23.4 15.9033 23.4 13C23.4 10.0967 22.3925 7.6375 20.3775 5.6225C18.3625 3.6075 15.9033 2.6 13 2.6C10.0967 2.6 7.6375 3.6075 5.6225 5.6225C3.6075 7.6375 2.6 10.0967 2.6 13C2.6 15.9033 3.6075 18.3625 5.6225 20.3775C7.6375 22.3925 10.0967 23.4 13 23.4Z" fill="white"/>
</svg>
