<svg width="35" height="34" viewBox="0 0 35 34" fill="none" xmlns="http://www.w3.org/2000/svg">
<g id="ph:plus-fill">
<path id="Vector" d="M28.5833 4.25H7.19443C6.62716 4.25 6.08313 4.47388 5.68201 4.8724C5.28089 5.27091 5.05554 5.81141 5.05554 6.375V27.625C5.05554 28.1886 5.28089 28.7291 5.68201 29.1276C6.08313 29.5261 6.62716 29.75 7.19443 29.75H28.5833C29.1506 29.75 29.6946 29.5261 30.0957 29.1276C30.4969 28.7291 30.7222 28.1886 30.7222 27.625V6.375C30.7222 5.81141 30.4969 5.27091 30.0957 4.8724C29.6946 4.47388 29.1506 4.25 28.5833 4.25ZM25.375 18.0625H18.9583V24.4375C18.9583 24.7193 18.8456 24.9895 18.6451 25.1888C18.4445 25.3881 18.1725 25.5 17.8889 25.5C17.6052 25.5 17.3332 25.3881 17.1327 25.1888C16.9321 24.9895 16.8194 24.7193 16.8194 24.4375V18.0625H10.4028C10.1191 18.0625 9.84711 17.9506 9.64655 17.7513C9.44599 17.552 9.33332 17.2818 9.33332 17C9.33332 16.7182 9.44599 16.448 9.64655 16.2487C9.84711 16.0494 10.1191 15.9375 10.4028 15.9375H16.8194V9.5625C16.8194 9.28071 16.9321 9.01046 17.1327 8.8112C17.3332 8.61194 17.6052 8.5 17.8889 8.5C18.1725 8.5 18.4445 8.61194 18.6451 8.8112C18.8456 9.01046 18.9583 9.28071 18.9583 9.5625V15.9375H25.375C25.6586 15.9375 25.9306 16.0494 26.1312 16.2487C26.3318 16.448 26.4444 16.7182 26.4444 17C26.4444 17.2818 26.3318 17.552 26.1312 17.7513C25.9306 17.9506 25.6586 18.0625 25.375 18.0625Z" fill="white"/>
</g>
</svg>
